<?xml version="1.0" encoding="utf-8"?>
<!-- Generator: Adobe Illustrator 23.1.0, SVG Export Plug-In . SVG Version: 6.00 Build 0)  -->
<svg version="1.1" id="Layer_1" xmlns="http://www.w3.org/2000/svg" xmlns:xlink="http://www.w3.org/1999/xlink" x="0px" y="0px"
	 viewBox="0 0 860.13 571.15" enable-background="new 0 0 860.13 571.15" xml:space="preserve">
<path fill="#F2F2F2" d="M435.74,160.53c-7.67-12.68-16.76-26.23-30.99-30.37c-16.48-4.8-33.41,4.73-47.77,14.13
	c-42.95,28.12-84.31,58.59-123.89,91.28l0.04,0.49c30.82-2.13,61.63-4.25,92.45-6.38c22.27-1.54,45.3-3.28,64.97-13.82
	c7.47-4,14.74-9.34,23.21-9.71c10.51-0.46,19.68,6.88,26.88,14.55c42.61,45.37,54.94,114.75,102.74,154.62
	C513.23,301,477.24,229.17,435.74,160.53z"/>
<path fill="#E4E4E4" d="M697.64,545.36c-4.71-5.95-6.64-7.34-11.28-13.35c-37.84-48.94-73.41-99.54-106.71-151.79
	c-22.62-35.49-44.11-71.65-64.48-108.5c-9.7-17.52-19.13-35.17-28.3-52.97c-7.11-13.8-14.07-27.68-20.86-41.64
	c-1.94-3.99-3.83-7.99-5.71-12.01c-4.43-9.44-8.77-18.93-13.44-28.24c-5.32-10.62-11.79-21.74-21.55-28.88
	c-4.44-3.38-9.76-5.42-15.32-5.89c-7.95-0.51-15.28,2.77-22.18,6.35c-50.44,26.3-97.66,59.28-140.37,96.8
	c-42.82,37.61-81.09,80.09-114.04,126.59c-1.01,1.44-3.39,0.06-2.37-1.38c4.01-5.67,8.09-11.27,12.26-16.81
	c51.79-68.88,115.29-128.11,187.6-174.99c12.17-7.88,24.56-15.4,37.18-22.54c6.36-3.6,12.75-7.16,19.25-10.5
	c6.37-3.27,13.14-6.22,20.42-6.33c24.77-0.39,37.6,27.67,46.41,46.54c2.77,5.94,5.57,11.86,8.41,17.77
	c10.72,22.41,21.85,44.62,33.39,66.63c7.12,13.59,14.4,27.09,21.84,40.52c23.14,41.81,47.73,82.78,73.78,122.9
	c34.51,53.14,68.74,100.09,108.05,149.78C700.66,544.79,698.73,546.75,697.64,545.36z"/>
<path fill="#E4E4E4" d="M244.98,191.38c-1.44-1.6-2.87-3.21-4.32-4.81c-11.42-12.63-23.68-25.12-39.36-32.36
	c-7.48-3.56-15.64-5.45-23.93-5.55c-8.56,0.03-16.93,2.27-24.84,5.42c-3.74,1.49-7.4,3.19-11,5c-4.12,2.07-8.16,4.28-12.18,6.51
	c-7.55,4.18-15.01,8.54-22.37,13.09c-14.64,9.05-28.82,18.79-42.55,29.22c-7.11,5.41-14.08,10.99-20.9,16.76
	c-6.34,5.35-12.56,10.85-18.65,16.49c-1.3,1.2-3.25-0.74-1.94-1.94c1.6-1.49,3.23-2.98,4.85-4.45c4.58-4.14,9.24-8.21,13.97-12.19
	c8.63-7.28,17.48-14.28,26.55-20.99c14.11-10.45,28.7-20.19,43.78-29.23c7.54-4.51,15.18-8.83,22.92-12.96
	c2.34-1.25,4.7-2.47,7.1-3.62c5.43-2.74,11.07-5.03,16.87-6.87c8.21-2.66,16.9-3.51,25.48-2.5c8.28,1.2,16.25,3.96,23.51,8.13
	c15.4,8.61,27.35,21.92,38.97,34.91C248.1,190.75,246.16,192.7,244.98,191.38z"/>
<path fill="#E4E4E4" d="M560.54,322.28l36.9-13.5l18.32-6.7c5.97-2.18,11.92-4.67,18.09-6.23c5.36-1.53,11.05-1.46,16.37,0.21
	c4.74,1.76,9.09,4.45,12.77,7.92c3.76,3.47,7.26,7.2,10.47,11.19c3.99,4.79,7.92,9.64,11.87,14.47
	c16.29,19.93,32.48,39.94,48.56,60.04c16.08,20.1,32.05,40.29,47.92,60.56c15.9,20.32,31.7,40.73,47.39,61.22
	c1.92,2.51,3.84,5.02,5.76,7.53c1.06,1.39,3.45,0.02,2.37-1.39c-15.8-20.7-31.71-41.31-47.73-61.83
	c-16.06-20.58-32.23-41.06-48.52-61.47c-16.28-20.4-32.68-40.71-49.18-60.94c-4.11-5.04-8.23-10.07-12.35-15.1
	c-3.48-4.24-6.92-8.53-10.74-12.47c-7.01-7.25-15.76-13.65-26.23-13.82c-6.16-0.1-12.12,1.85-17.84,3.92
	c-6.17,2.23-12.32,4.51-18.49,6.76l-37.16,13.59l-9.29,3.4C558.16,320.24,558.87,322.89,560.54,322.28L560.54,322.28z"/>
<path fill="#F2F2F2" d="M196.44,170.1c-18.75-9.64-42.77-7.75-60.01,4.29c32.87,5.67,65.38,13.26,97.37,22.73
	C220.53,189.33,210.14,177.14,196.44,170.1z"/>
<path fill="#F2F2F2" d="M136.25,174.36l-3.61,2.93c1.22-1.03,2.49-1.99,3.8-2.9C136.38,174.38,136.32,174.37,136.25,174.36z"/>
<path fill="#F2F2F2" d="M661.61,322.42c-3.63-4.42-7.56-9.05-12.99-10.85l-5.07,0.2c38.62,68.24,90.77,127.87,153.27,175.22
	C751.75,432.13,706.68,377.28,661.61,322.42z"/>
<path fill="#F2F2F2" d="M346.15,285.94c2.35,8.53,7.64,15.95,14.93,20.96c2.82,1.92,6.16,3.76,7.12,7.03
	c0.51,2.09,0.19,4.29-0.87,6.15c-1.07,1.84-2.36,3.53-3.86,5.04l-0.14,0.51c-7-4.15-13.66-9.39-17.52-16.55
	C341.94,301.93,341.4,292.55,346.15,285.94"/>
<path fill="#F2F2F2" d="M579.15,488.94c2.35,8.53,7.64,15.95,14.93,20.96c2.82,1.92,6.16,3.76,7.12,7.03
	c0.51,2.09,0.19,4.29-0.87,6.15c-1.07,1.84-2.36,3.53-3.86,5.04l-0.14,0.51c-7-4.15-13.66-9.39-17.52-16.55
	S574.4,495.55,579.15,488.94"/>
<path fill="#F2F2F2" d="M114.15,474.94c2.35,8.53,7.64,15.95,14.93,20.96c2.82,1.92,6.16,3.76,7.12,7.03
	c0.51,2.09,0.19,4.29-0.87,6.15c-1.07,1.84-2.36,3.53-3.86,5.04l-0.14,0.51c-7-4.15-13.66-9.39-17.52-16.55
	S109.4,481.55,114.15,474.94"/>
<circle fill="#6C63FF" cx="649.25" cy="51" r="51"/>
<path fill="#F0F0F0" d="M741.28,11.87c-24.72-3.34-52.94,10.02-59.34,34.12c-4.2-11.16-16.66-16.8-27.82-12.6
	c-6.54,2.46-11.49,7.94-13.27,14.71l2.83,2.03c52.97,11.45,107.8,11.21,160.66-0.73C787.15,31.33,766,15.21,741.28,11.87z"/>
<path fill="#F0F0F0" d="M635.28,79.87c-24.72-3.34-52.94,10.02-59.34,34.12c-4.2-11.16-16.66-16.8-27.82-12.6
	c-6.54,2.46-11.49,7.94-13.27,14.71l2.83,2.03c52.97,11.45,107.8,11.21,160.66-0.73C681.15,99.33,660,83.21,635.28,79.87z"/>
<path fill="#CCCCCC" d="M851.01,92.73c-0.1,0-0.2-0.02-0.3-0.05C586.3,9.06,353.27,20,204.33,43.9
	c-20.27,3.25-40.59,7.01-60.4,11.16c-5.06,1.06-10.31,2.2-15.6,3.38c-6.32,1.41-12.55,2.86-18.53,4.31
	c-2.58,0.61-5.11,1.23-7.59,1.85c-3.76,0.93-7.57,1.89-11.66,2.96c-4.57,1.18-9.21,2.41-13.8,3.67c-0.02,0.01-0.03,0.01-0.05,0.01
	l0,0c-5.18,1.41-10.34,2.87-15.32,4.33c-2.7,0.78-5.3,1.55-7.8,2.31c-0.28,0.08-0.53,0.15-0.78,0.23l-0.54,0.16
	c-0.31,0.09-0.62,0.19-0.92,0.28l-0.02,0.01l0,0l-0.81,0.25c-0.97,0.29-1.91,0.58-2.84,0.86c-24.54,7.57-38.04,12.95-38.17,13
	c-0.51,0.21-1.09-0.04-1.3-0.56s0.04-1.09,0.56-1.3c0.13-0.05,13.69-5.46,38.33-13.06c0.93-0.29,1.88-0.57,2.85-0.87l0.75-0.23
	c0.03-0.01,0.05-0.02,0.08-0.03c0.31-0.09,0.61-0.18,0.92-0.27l0.54-0.16c0.27-0.08,0.53-0.16,0.8-0.24
	c2.48-0.75,5.09-1.52,7.8-2.31c4.99-1.46,10.15-2.91,15.33-4.33c0.02-0.01,0.03-0.01,0.05-0.01v0c4.6-1.26,9.26-2.5,13.85-3.68
	c4.09-1.06,7.92-2.03,11.68-2.96c2.49-0.62,5.03-1.24,7.61-1.85c5.99-1.45,12.23-2.9,18.56-4.31c5.3-1.18,10.56-2.32,15.62-3.38
	c19.84-4.16,40.2-7.92,60.5-11.18c149.15-23.93,382.52-34.88,647.3,48.85c0.53,0.17,0.82,0.73,0.65,1.25
	C851.83,92.45,851.45,92.73,851.01,92.73z"/>
<path fill="#3F3D56" d="M262.99,419.84c-0.35-1.01-0.93-1.93-1.7-2.67c-0.28-0.26-0.59-0.5-0.92-0.71c-2.61-1.74-6.51-2.13-8.99,0
	c-0.25,0.22-0.48,0.45-0.69,0.71c-0.74,0.91-1.5,1.8-2.28,2.67c-1.28,1.46-2.59,2.87-3.96,4.24c-0.39,0.38-0.78,0.77-1.18,1.15
	c-0.23,0.23-0.46,0.45-0.69,0.67c-0.88,0.84-1.78,1.65-2.69,2.45c-0.48,0.43-0.96,0.85-1.45,1.26c-0.73,0.61-1.46,1.22-2.2,1.81
	c-0.07,0.05-0.14,0.1-0.21,0.16c-0.02,0.01-0.03,0.03-0.05,0.04c-0.01,0-0.02,0-0.03,0.02c-0.03,0.01-0.05,0.03-0.07,0.05
	c-0.22,0.15-0.37,0.25-0.48,0.34c0.04-0.02,0.08-0.05,0.12-0.07c-0.18,0.14-0.37,0.28-0.55,0.42c-1.75,1.29-3.54,2.53-5.37,3.69
	c-4.53,2.9-9.28,5.42-14.22,7.55c-0.33,0.13-0.67,0.27-1.01,0.4c-12.93,5.3-26.95,7.36-40.85,6.02c-1.42-0.11-2.84-0.26-4.26-0.45
	c-1.64-0.24-3.27-0.53-4.89-0.86c-6.17-1.23-12.2-3.05-18.02-5.44c-7.28-3.33-14.2-7.39-20.66-12.12c-1-0.71-2.01-1.42-3.02-2.11
	c1.15-2.82,2.28-5.64,3.38-8.48c0.55-1.37,1.08-2.74,1.6-4.12c4.09-10.63,7.93-21.36,11.61-32.13c3.72-10.91,7.23-21.88,10.53-32.92
	c0.34-1.12,0.67-2.24,0.99-3.36c1.73-5.83,3.39-11.67,4.98-17.53c0.15-0.57,0.31-1.13,0.45-1.7c0.46-1.68,0.91-3.36,1.35-5.04
	c1-3.79-1.26-8.32-5.24-9.23c-3.98-1.02-8.06,1.3-9.22,5.24c-0.43,1.62-0.86,3.23-1.3,4.85c-2.11,7.83-4.33,15.63-6.66,23.41
	c-0.34,1.12-0.68,2.24-1.02,3.36c-5.14,16.94-10.78,33.71-16.93,50.31c-0.74,2.01-1.49,4.01-2.25,6.01
	c-0.37,0.98-0.74,1.96-1.12,2.94c-0.73,1.93-1.48,3.86-2.23,5.79c-0.43,1.13-0.87,2.26-1.31,3.38c-0.29,0.71-0.57,1.42-0.85,2.12
	c-2.85-1.02-5.81-1.73-8.81-2.12l-0.48-0.06c-2.33-0.28-4.69-0.26-7.01,0.06c-7.04,0.82-13.36,4.73-17.24,10.66
	c-4.77,7.51-4.71,18.25,1.98,24.63c6.89,6.57,17.32,6.52,25.43,2.41c4.3-2.33,7.92-5.72,10.52-9.86c1-1.5,1.91-3.05,2.74-4.65
	c0.21,0.14,0.42,0.28,0.63,0.43c0.8,0.56,1.6,1.13,2.39,1.69c4.6,3.33,9.45,6.31,14.51,8.91c10.87,5.4,22.57,8.94,34.62,10.47
	c0.27,0.03,0.53,0.07,0.8,0.1c1.33,0.17,2.67,0.3,4.01,0.41c19.22,1.45,38.47-2.49,55.58-11.36c1.45-0.75,2.89-1.54,4.31-2.36
	c2.21-1.28,4.37-2.64,6.48-4.08c1.15-0.78,2.27-1.57,3.38-2.4c4.85-3.57,9.37-7.57,13.51-11.95c1.57-1.65,3.07-3.35,4.51-5.11
	c1.36-1.44,2.14-3.32,2.2-5.3C263.48,421.58,263.31,420.68,262.99,419.84z M97.4,443.66c0.21-0.15,0.42-0.31,0.62-0.47
	C97.96,443.34,97.67,443.51,97.4,443.66L97.4,443.66z M100.61,440.43c-0.23,0.26-0.44,0.52-0.67,0.78c-0.7,0.78-1.45,1.52-2.25,2.2
	c-0.11,0.1-0.23,0.2-0.35,0.29c-0.01,0-0.01,0-0.01,0.01c0,0,0,0,0,0c-0.14,0.06-0.28,0.14-0.42,0.22c-0.43,0.26-0.87,0.5-1.32,0.72
	c-0.88,0.32-1.79,0.58-2.71,0.75c-0.71,0.05-1.42,0.06-2.13,0.02h-0.02c-0.49-0.11-0.97-0.24-1.45-0.4c-0.24-0.12-0.47-0.26-0.7-0.4
	c-0.09-0.08-0.17-0.16-0.22-0.21c-0.1-0.09-0.19-0.19-0.27-0.29c0-0.01,0-0.01-0.01-0.01c0,0,0,0,0,0c-0.11-0.2-0.23-0.4-0.34-0.6
	c-0.01-0.01-0.01-0.01-0.01-0.02c-0.08-0.25-0.15-0.51-0.21-0.77c-0.02-0.46-0.02-0.91,0.01-1.37c0.13-0.64,0.31-1.27,0.54-1.88
	c0.2-0.43,0.43-0.86,0.69-1.26c0.02-0.04,0.12-0.2,0.23-0.38c0.01-0.01,0.01-0.01,0.01-0.02c0.15-0.17,0.3-0.35,0.46-0.51
	c0.27-0.3,0.56-0.56,0.85-0.83c0.56-0.37,1.15-0.71,1.75-1.01c0.95-0.34,1.93-0.6,2.93-0.79c1.47-0.12,2.94-0.1,4.41,0.04
	c1.39,0.24,2.76,0.58,4.1,1.01c-0.81,1.58-1.74,3.1-2.77,4.54C100.69,440.32,100.65,440.38,100.61,440.43z M89.49,437.14
	c-0.09,0.14-0.19,0.27-0.31,0.39C89.26,437.38,89.36,437.25,89.49,437.14L89.49,437.14z"/>
<path fill="#3F3D56" d="M232.93,317.71c-0.09,3.14-0.18,6.28-0.27,9.42c-0.19,6.97-0.39,13.94-0.59,20.92
	c-0.21,7.85-0.43,15.7-0.66,23.54c-0.11,4.05-0.22,8.1-0.34,12.15c-0.31,10.91-0.62,21.82-0.92,32.72c-0.03,1.13-0.07,2.25-0.1,3.38
	c-0.15,5.41-0.3,10.82-0.45,16.23c-0.17,5.87-0.34,11.74-0.5,17.61c-0.12,4.4-0.24,8.8-0.37,13.21c-0.9,31.93-1.8,63.86-2.7,95.79
	c-0.08,4.11-3.39,7.42-7.5,7.5c-4.13-0.03-7.47-3.37-7.5-7.5c0.5-17.96,1.01-35.92,1.52-53.88c0.45-16.24,0.91-32.48,1.37-48.72
	c0.15-5.35,0.3-10.7,0.45-16.06c0.23-8.06,0.46-16.12,0.68-24.18c0.03-1.13,0.07-2.25,0.1-3.38c0.02-0.99,0.05-1.97,0.08-2.96
	c0.44-15.65,0.88-31.3,1.32-46.96c0.18-6.16,0.35-12.32,0.52-18.49c0.2-7.03,0.4-14.06,0.6-21.08c0.09-3.09,0.17-6.17,0.26-9.26
	c0.08-4.11,3.39-7.42,7.5-7.5C229.56,310.24,232.9,313.58,232.93,317.71z"/>
<path fill="#3F3D56" d="M644.36,319.79c-7.86,29.78-17.26,59.13-28.16,87.94c-3.01,7.95-6.08,15.88-9.37,23.71l0.76-1.79
	c-1.47,3.73-3.34,7.29-5.59,10.61c-0.15,0.21-0.31,0.43-0.47,0.64c0.78-0.99,0.92-1.19,0.44-0.59c-0.25,0.3-0.5,0.6-0.77,0.9
	c-0.7,0.78-1.45,1.52-2.25,2.2c-0.2,0.17-0.4,0.34-0.61,0.5l0.94-0.73c-0.11,0.26-0.87,0.6-1.11,0.74c-0.77,0.46-1.57,0.87-2.4,1.22
	l1.79-0.76c-1.36,0.55-2.78,0.94-4.23,1.16l1.99-0.27c-1.42,0.2-2.87,0.21-4.3,0.05l1.99,0.27c-1.17-0.16-2.31-0.47-3.4-0.92
	l1.79,0.76c-0.58-0.25-1.14-0.55-1.68-0.9c-0.27-0.18-1.11-0.81-0.01,0.02c1.13,0.87,0.15,0.07-0.09-0.16
	c-0.19-0.19-0.37-0.4-0.56-0.59c-0.88-0.9,1,1.56,0.4,0.5c-0.32-0.53-0.61-1.08-0.88-1.64l0.76,1.79c-0.34-0.85-0.59-1.74-0.73-2.65
	l0.27,1.99c-0.14-1.13-0.14-2.27,0-3.4l-0.27,1.99c0.18-1.26,0.52-2.5,0.99-3.68l-0.76,1.79c0.33-0.8,0.73-1.56,1.18-2.3
	c0.21-0.38,0.45-0.74,0.73-1.07c0.05,0.02-1.27,1.51-0.57,0.76c0.18-0.2,0.35-0.41,0.54-0.6c0.3-0.31,0.61-0.6,0.93-0.9
	c1.04-0.99-1.46,0.97-0.26,0.18c0.87-0.57,1.79-1.08,2.75-1.5l-1.79,0.76c1.6-0.66,3.28-1.11,5-1.34l-1.99,0.27
	c2.15-0.25,4.32-0.22,6.46,0.08l-1.99-0.27c2.71,0.41,5.36,1.16,7.89,2.22l-1.79-0.76c5.39,2.31,10.16,5.75,14.93,9.12
	c4.6,3.33,9.45,6.31,14.51,8.91c10.87,5.41,22.58,8.95,34.62,10.47c35.1,4.3,69.99-9.55,92.59-36.75c1.36-1.44,2.14-3.33,2.2-5.3
	c-0.01-1.99-0.8-3.89-2.2-5.3c-2.75-2.53-7.95-3.24-10.61,0c-2.52,3.07-5.23,5.99-8.11,8.73c-1.34,1.28-2.73,2.51-4.14,3.71
	c-0.81,0.68-1.63,1.35-2.46,2.01c-0.39,0.31-1.62,1.14,0.26-0.2c-0.43,0.31-0.84,0.64-1.27,0.95c-6.3,4.64-13.12,8.52-20.33,11.56
	l1.79-0.76c-7.74,3.25-15.86,5.47-24.17,6.62l1.99-0.27c-8.55,1.12-17.21,1.11-25.75-0.04l1.99,0.27
	c-8.54-1.17-16.9-3.45-24.86-6.77l1.79,0.76c-7.68-3.4-14.97-7.62-21.74-12.59c-3.52-2.61-7.24-4.95-11.11-6.99
	c-4.51-2.31-9.4-3.79-14.44-4.39c-9.44-1.11-19.06,2.57-24.25,10.72c-4.78,7.5-4.71,18.24,1.97,24.63
	c6.89,6.57,17.32,6.52,25.44,2.41c7.82-3.96,12.51-12.19,15.82-19.94c7.43-17.46,14.01-35.31,20.14-53.26
	c6.06-17.76,11.56-35.7,16.5-53.81c0.61-2.24,1.21-4.49,1.81-6.74c1-3.79-1.26-8.32-5.24-9.23
	C649.6,313.53,645.52,315.84,644.36,319.79L644.36,319.79z"/>
<path fill="#3F3D56" d="M719.19,317.71l-2.7,95.79l-2.69,95.29l-1.52,53.88c0.04,4.13,3.37,7.46,7.5,7.5
	c4.11-0.08,7.42-3.39,7.5-7.5l2.7-95.79l2.69-95.29l1.52-53.88c-0.04-4.13-3.37-7.46-7.5-7.5
	C722.58,310.29,719.27,313.6,719.19,317.71z"/>
<path opacity="0.2" enable-background="new    " d="M459.59,535.94h2.33V429.89h54.33v-2.32h-54.33v-44.74h41.96
	c-0.62-0.78-1.25-1.55-1.9-2.32h-40.06v-29.55c-0.77-0.33-1.55-0.64-2.33-0.94v30.5h-45.65v-37.87c-0.78,0.04-1.55,0.09-2.33,0.16
	v37.71h-36.42v-28.25c-0.78,0.35-1.55,0.71-2.32,1.09v27.16h-30.62v2.32h30.62v44.74h-30.62v2.32h30.62v106.04h2.32V429.89
	c20.11,0,36.42,16.3,36.42,36.41c0,0,0,0.01,0,0.01v69.62h2.33V429.89h45.65V535.94z M375.19,427.57v-44.74h36.42v44.74H375.19z
	 M413.94,427.57v-44.74h0.91c24.71,0,44.74,20.03,44.74,44.74c0,0,0,0,0,0H413.94z"/>
<path fill="#3F3D56" d="M445.37,504.14c-2.93,13.08-9.95,24.88-20.05,33.7c-0.74,0.64-1.48,1.26-2.25,1.87
	c-1.87,0.17-3.73,0.34-5.57,0.52c-1.53,0.14-3.04,0.29-4.54,0.43l-0.27,0.03l-0.19-1.64l-0.76-6.64c-5.97-9.75-7.19-21.69-3.3-32.44
	c2.64-7.12,7.42-13.41,12.12-19.65c6.49-8.62,12.8-17.14,13.03-27.65c3.19,4.09,5.85,8.57,7.9,13.33c-1.94,0.91-3.68,2.19-5.12,3.77
	c-0.41,0.45-0.82,1.08-0.54,1.62c0.24,0.46,0.84,0.57,1.36,0.63c1.25,0.13,2.51,0.26,3.76,0.39c1,0.11,2,0.21,3,0.32
	c1.21,3.97,2.03,8.05,2.45,12.18C447.07,491.33,446.73,497.82,445.37,504.14z"/>
<path fill="#6C63FF" d="M478.57,477.93c-5.9,4.29-9.35,10.46-12.03,17.26c-2.75,0.88-5.22,2.46-7.17,4.58
	c-0.41,0.45-0.82,1.08-0.54,1.62c0.24,0.46,0.84,0.57,1.36,0.63c1.25,0.13,2.51,0.26,3.76,0.39c-2.68,8.04-5.14,16.36-9.88,23.15
	c-3.15,4.48-7.26,8.21-12.03,10.91c-1.3,0.74-2.64,1.41-4.02,1.99c-5.08,0.39-10.06,0.81-14.95,1.25c-1.87,0.17-3.73,0.34-5.57,0.52
	c-1.53,0.14-3.04,0.29-4.54,0.43c-0.01-0.55-0.01-1.1,0-1.65c0.32-14.65,5.71-28.74,15.25-39.86c0.45-0.52,0.91-1.03,1.38-1.54
	c4.84-5.16,10.52-9.46,16.81-12.7C456.31,479.76,467.41,477.35,478.57,477.93z"/>
<path fill="#6C63FF" d="M419.23,535.1l-1.15,3.4l-0.58,1.73c-1.53,0.14-3.04,0.29-4.54,0.43l-0.27,0.03
	c-1.66,0.17-3.31,0.34-4.96,0.51c-0.43-0.5-0.86-1.01-1.28-1.53c-21.73-26.31-18.12-65.24,8.07-87.11
	c-1.32,6.91,0.22,13.53,2.75,20.1c-0.27,0.11-0.53,0.22-0.78,0.34c-1.94,0.91-3.68,2.19-5.12,3.77c-0.41,0.45-0.82,1.08-0.54,1.62
	c0.24,0.46,0.84,0.57,1.36,0.63c1.25,0.13,2.51,0.26,3.76,0.39c1,0.11,2,0.21,3,0.32c0.47,0.05,0.94,0.1,1.41,0.15
	c0.07,0.15,0.13,0.29,0.2,0.44c2.85,6.18,5.92,12.39,7.65,18.83c0.43,1.62,0.77,3.26,1.02,4.91
	C430.79,515.39,427.11,526.81,419.23,535.1z"/>
<path fill="#3F3D56" d="M519.89,390.06c-8.61-16.79-21.95-30.92-37.63-41.3c-15.74-10.37-33.79-16.68-52.56-18.38
	c-2.46-0.22-4.93-0.35-7.4-0.39c-2.92-0.04-46.87,12.63-61.59,22.98c-14.71,10.22-26.82,23.76-35.33,39.53
	c-8.5,15.85-12.68,33.66-12.13,51.63c0.73,18.09,5.77,35.73,14.7,51.48c8.81,15.69,21.32,28.99,36.44,38.75
	c15.34,9.79,30.75,35.74,48.85,36.65c18.25,0.92,39.05-23.55,55.7-30.99c16.64-7.49,31.03-19.22,41.73-34.01
	c10.4-14.49,17.12-31.29,19.6-48.95c2.57-18.08,1.37-36.73-4.8-54.02C523.88,398.6,522.02,394.27,519.89,390.06
	c-1.78-3.51-7-4.8-10.26-2.69c-3.49,2.15-4.68,6.67-2.69,10.26c1.05,2.06,2.02,4.15,2.92,6.28l-0.76-1.79
	c3.4,8.18,5.71,16.76,6.88,25.54l-0.27-1.99c1.24,9.52,1.22,19.17-0.07,28.68l0.27-1.99c-1.3,9.52-3.84,18.82-7.55,27.67l0.76-1.79
	c-1.91,4.52-4.14,8.89-6.67,13.1c-1.28,2.12-2.64,4.2-4.08,6.22c-0.63,0.89-1.28,1.76-1.94,2.63c-0.86,1.14,1.17-1.48,0.28-0.37
	c-0.15,0.19-0.3,0.38-0.45,0.57c-0.45,0.57-0.91,1.13-1.38,1.69c-3.12,3.72-6.52,7.19-10.18,10.38c-0.91,0.79-1.84,1.57-2.78,2.33
	c-0.47,0.38-0.93,0.77-1.42,1.12c0.02-0.01,1.58-1.2,0.66-0.51c-0.29,0.22-0.58,0.44-0.87,0.65c-1.94,1.44-3.93,2.8-5.97,4.09
	c-4.7,2.96-9.64,5.54-14.76,7.71l1.79-0.76c-8.83,3.72-18.11,6.26-27.6,7.55l1.99-0.27c-9.49,1.28-19.1,1.3-28.59,0.05l1.99,0.27
	c-8.63-1.16-17.06-3.44-25.1-6.78l1.79,0.76c-4.65-1.96-9.14-4.3-13.42-6.99c-2.12-1.33-4.18-2.75-6.18-4.25
	c-0.29-0.21-0.57-0.43-0.85-0.65c-0.92-0.69,0.66,0.51,0.67,0.52c-0.53-0.38-1.04-0.79-1.53-1.22c-0.97-0.79-1.92-1.6-2.86-2.42
	c-3.76-3.31-7.26-6.89-10.49-10.71c-0.81-0.96-1.6-1.93-2.37-2.91c-0.34-0.43-0.95-1.29,0.4,0.53c-0.18-0.24-0.36-0.47-0.54-0.71
	c-0.43-0.57-0.86-1.15-1.28-1.73c-1.47-2.03-2.86-4.11-4.19-6.25c-2.99-4.83-5.6-9.88-7.81-15.11l0.76,1.79
	c-3.61-8.59-6.08-17.61-7.34-26.84l0.27,1.99c-1.14-8.51-1.16-17.13-0.05-25.64l-0.27,1.99c1.14-8.24,3.35-16.3,6.59-23.96
	l-0.76,1.79c2.04-4.8,4.44-9.43,7.2-13.86c1.38-2.22,2.84-4.38,4.38-6.48c0.35-0.48,0.7-0.95,1.06-1.43
	c0.32-0.43,1.22-1.49-0.31,0.39c0.15-0.18,0.29-0.37,0.44-0.56c0.85-1.07,1.71-2.13,2.6-3.16c3.36-3.93,6.99-7.61,10.88-11.02
	c0.98-0.86,1.98-1.7,2.99-2.53c0.46-0.37,0.92-0.75,1.39-1.11c0.19-0.15,0.38-0.29,0.56-0.44c-2,1.59-0.55,0.43-0.1,0.09
	c2.09-1.57,4.23-3.05,6.44-4.46c4.89-3.13,10.04-5.84,15.39-8.11l-1.79,0.76c7.76-3.26,42.14-10.95,48.39-10.11l-1.99-0.27
	c9.19,1.28,18.17,3.77,26.72,7.38l-1.79-0.76c4.33,1.84,8.54,3.95,12.6,6.33c2.03,1.19,4.02,2.44,5.97,3.76
	c0.92,0.62,1.84,1.26,2.74,1.91c0.45,0.33,0.9,0.66,1.35,0.99c0.25,0.18,0.49,0.37,0.74,0.56c1.04,0.78-1.43-1.13-0.34-0.27
	c3.65,2.86,7.11,5.95,10.37,9.25c1.6,1.63,3.15,3.31,4.64,5.05c0.76,0.89,1.51,1.79,2.25,2.71c0.36,0.45,1.61,2.1,0.08,0.08
	c0.37,0.49,0.75,0.98,1.11,1.48c3.16,4.28,5.97,8.81,8.39,13.54c1.79,3.5,6.99,4.8,10.26,2.69
	C520.69,398.17,521.88,393.65,519.89,390.06z"/>
<path fill="#3F3D56" d="M432.5,512.46c-2.09,0.1-3.85-1.52-3.95-3.6c-0.05-1.11,0.39-2.19,1.21-2.95c0.1-0.38,0.16-0.65,0.26-1.03
	c-0.03-0.08-0.07-0.16-0.1-0.25c-3.48-8.3-25.68,14.83-26.65,22.63c-0.42,3.45-0.24,6.94,0.53,10.33
	c-7.19-15.69-10.93-32.74-10.95-50c0-4.33,0.24-8.66,0.72-12.96c0.4-3.53,0.95-7.03,1.66-10.51c3.86-18.87,12.13-36.56,24.15-51.62
	c6.87,0.38,12.9-0.66,13.48-13.99c0.1-2.37,1.86-4.42,2.25-6.76c-0.66,0.09-1.32,0.14-1.98,0.18c-0.2,0.01-0.42,0.02-0.62,0.03
	l-0.08,0c-2.07,0.09-3.82-1.51-3.91-3.57c-0.04-0.92,0.26-1.82,0.83-2.53c0.28-0.35,0.57-0.7,0.85-1.05c0.43-0.54,0.87-1.07,1.3-1.6
	c0.05-0.05,0.1-0.1,0.14-0.16c0.49-0.61,0.99-1.22,1.48-1.83c-0.9-1.4-2.12-2.58-3.55-3.43c-4.96-2.9-11.8-0.89-15.38,3.59
	c-3.59,4.49-4.27,10.78-3.02,16.38c1.23,4.77,3.26,9.29,6,13.38c-0.27,0.34-0.55,0.68-0.82,1.02c-4.92,6.32-9.2,13.11-12.79,20.27
	c1.02-7.94-11.41-36.61-16.22-42.68c-5.77-7.29-17.61-4.11-18.63,5.14c-0.01,0.09-0.02,0.18-0.03,0.27c0.71,0.4,1.41,0.83,2.1,1.28
	c2.35,1.57,2.99,4.76,1.41,7.11c-0.8,1.19-2.06,2-3.48,2.22l-0.1,0.02c-9.56,13.64,21.08,49.15,28.75,41.18
	c-3.61,10.23-5.87,20.88-6.73,31.69c-0.49,6.38-0.46,12.79,0.09,19.16l-0.03-0.23c-1.7-13.88-30.93-34.52-39.47-32.8
	c-4.92,0.99-9.76,0.77-9.01,5.72c0.01,0.08,0.02,0.16,0.04,0.24c1.32,0.54,2.61,1.16,3.86,1.86c0.71,0.4,1.41,0.83,2.1,1.28
	c2.35,1.57,2.99,4.76,1.41,7.11c-0.8,1.19-2.06,2-3.48,2.22l-0.1,0.02c-0.08,0.01-0.14,0.02-0.22,0.03
	c-4.35,14.97,27.91,39.12,47.52,31.43h0.01c1.94,8.45,4.76,16.67,8.4,24.53h30.01c0.11-0.33,0.2-0.68,0.3-1.01
	c-2.78,0.17-5.57,0.01-8.31-0.49c2.23-2.73,4.45-5.49,6.68-8.22c0.05-0.05,0.1-0.1,0.14-0.16c1.13-1.4,2.27-2.79,3.4-4.18l0,0
	C434.02,520.89,433.53,516.62,432.5,512.46L432.5,512.46z M398.13,444.84l0.02-0.02l-0.02,0.04V444.84z M391.48,504.78l-0.26-0.58
	c0.01-0.42,0.01-0.84,0-1.27c0-0.12-0.02-0.24-0.02-0.36c0.1,0.74,0.18,1.48,0.29,2.23L391.48,504.78z"/>
<circle fill="#3F3D56" cx="95.25" cy="439" r="11"/>
<circle fill="#3F3D56" cx="227.25" cy="559" r="11"/>
<circle fill="#3F3D56" cx="728.25" cy="559" r="11"/>
<circle fill="#3F3D56" cx="755.25" cy="419" r="11"/>
<circle fill="#3F3D56" cx="723.25" cy="317" r="11"/>
<path fill="#3F3D56" d="M264.25,419c-0.01,6.05-4.93,10.94-10.97,10.92c-6.05-0.01-10.94-4.93-10.92-10.97
	c0.01-6.05,4.93-10.94,10.97-10.92c5.21,0.01,9.7,3.7,10.71,8.81C264.18,417.55,264.25,418.27,264.25,419z"/>
<circle fill="#3F3D56" cx="484.25" cy="349" r="11"/>
<path fill="#3F3D56" d="M375.25,349c-0.01,6.05-4.93,10.94-10.97,10.92c-6.05-0.01-10.94-4.93-10.92-10.97s4.93-10.94,10.97-10.92
	c5.21,0.01,9.7,3.7,10.71,8.81C375.18,347.55,375.25,348.27,375.25,349z"/>
<path fill="#3F3D56" d="M233.25,317c-0.01,6.05-4.93,10.94-10.97,10.92c-6.05-0.01-10.94-4.93-10.92-10.97
	c0.01-6.05,4.93-10.94,10.97-10.92c5.21,0.01,9.7,3.7,10.71,8.81C233.18,315.55,233.25,316.27,233.25,317z"/>
<circle fill="#3F3D56" cx="599.25" cy="443" r="11"/>
<circle fill="#3F3D56" cx="426.25" cy="338" r="16"/>
<path fill="#CACACA" d="M858.94,570.84L1.19,571.15c-0.66,0-1.19-0.53-1.19-1.19c0-0.66,0.53-1.19,1.19-1.19c0,0,0.01,0,0.01,0
	l857.75-0.31c0.66,0,1.19,0.54,1.18,1.2C860.12,570.31,859.59,570.84,858.94,570.84z"/>
</svg>
