<?xml version="1.0" encoding="utf-8"?>
<!-- Generator: Adobe Illustrator 23.1.0, SVG Export Plug-In . SVG Version: 6.00 Build 0)  -->
<svg version="1.1" id="Layer_1" xmlns="http://www.w3.org/2000/svg" xmlns:xlink="http://www.w3.org/1999/xlink" x="0px" y="0px"
	 viewBox="0 0 512 512" enable-background="new 0 0 512 512" xml:space="preserve">
<path d="M312.02,141.71L255,158.22l-17.91-5.19l-39.11-11.32L255,125.21L312.02,141.71z M325,148.36l-65,18.82v83.67l65-18.82
	V148.36z M115.15,415h90.14c0.35-11.89-0.56-37.02-1.22-42.3c-1.5-12.5-11.71-40.44-26.2-65.58
	c-16.28-28.24-32.87-44.44-45.53-44.44c-0.86,0-1.73,0.08-2.56,0.23c-0.65,0.11-1.26,0.25-1.85,0.4c-2.9,1.22-4,2.98-4.58,4.35
	c-3,7-0.64,24.23,27.7,66.59c0.72,1.07,1.32,1.98,1.8,2.7c1.52,2.31,0.87,5.41-1.44,6.92c-0.85,0.55-1.8,0.82-2.74,0.82
	c-1.63,0-3.22-0.8-4.19-2.26c-0.46-0.7-1.05-1.59-1.75-2.63c-17.37-25.96-36.31-58.07-28.58-76.1c0.16-0.38,0.35-0.77,0.56-1.17
	c-0.09-0.8,0.01-1.63,0.32-2.42c9.09-22.74,16.33-61.09,12.18-83.42c-1.55-8.56-9.47-23.81-19.72-23.81c-0.91,0-1.85,0.12-2.79,0.37
	c-7.01,1.85-19.27,23.47-29.6,66.56c-8.64,36.05-12.33,72.37-8.76,86.37c5.19,20.49,14.48,32.63,23.46,44.37
	C101.6,366.01,113.8,381.94,115.15,415z M210,425h5v50H85.9l8.33-50h16.03H210z M125,450c0-1.32-0.53-2.6-1.46-3.54
	c-0.93-0.93-2.22-1.46-3.54-1.46s-2.6,0.53-3.53,1.46c-0.94,0.93-1.47,2.22-1.47,3.54c0,1.32,0.53,2.6,1.47,3.54
	c0.93,0.93,2.21,1.46,3.53,1.46s2.61-0.53,3.54-1.46C124.47,452.6,125,451.31,125,450z M185,232.03l65,18.82v-83.67l-65-18.82
	V232.03z M415.77,425l8.33,50H295v-50h5h99.73H415.77z M395,450c0-1.32-0.53-2.61-1.47-3.54c-0.93-0.93-2.21-1.46-3.53-1.46
	c-1.32,0-2.61,0.53-3.54,1.46c-0.93,0.93-1.46,2.22-1.46,3.54c0,1.31,0.53,2.6,1.46,3.54c0.93,0.93,2.22,1.46,3.54,1.46
	c1.32,0,2.6-0.53,3.53-1.46C394.47,452.6,395,451.31,395,450z M434.9,219.83c-10.33-43.09-22.59-64.71-29.62-66.56
	c-0.93-0.24-1.86-0.37-2.78-0.37c-10.25,0-18.16,15.25-19.71,23.79c-4.16,22.34,3.08,60.7,12.17,83.44
	c0.32,0.79,0.41,1.62,0.32,2.42c0.2,0.39,0.39,0.78,0.56,1.16c7.73,18.02-11.21,50.14-28.58,76.1c-0.7,1.04-1.29,1.92-1.75,2.63
	c-0.96,1.46-2.56,2.26-4.19,2.26c-0.94,0-1.89-0.27-2.74-0.82c-2.31-1.52-2.95-4.61-1.44-6.92c0.47-0.72,1.08-1.63,1.8-2.7
	c28.34-42.36,30.7-59.59,27.7-66.59c-0.59-1.37-1.69-3.14-4.59-4.36c-0.57-0.15-1.16-0.28-1.79-0.39c-0.88-0.16-1.74-0.24-2.61-0.24
	c-12.66,0-29.25,16.2-45.53,44.44c-14.49,25.14-24.7,53.08-26.2,65.56c-0.66,5.3-1.58,30.43-1.23,42.32h90.14
	c1.35-33.06,13.54-48.99,25.35-64.43c8.98-11.74,18.27-23.88,23.46-44.36C447.23,292.21,443.54,255.88,434.9,219.83z M131.67,124.66
	c2.57,1,5.47-0.27,6.47-2.85C158.67,69.08,204.93,35,256,35s97.33,34.08,117.86,86.82c0.77,1.98,2.66,3.19,4.66,3.19
	c0.6,0,1.22-0.11,1.81-0.34c2.57-1,3.85-3.9,2.85-6.47C361.14,61.58,311.22,25,256,25c-55.22,0-105.14,36.58-127.18,93.19
	C127.82,120.76,129.1,123.66,131.67,124.66z"/>
</svg>
