<?xml version="1.0" encoding="utf-8"?>
<!-- Generator: Adobe Illustrator 23.1.0, SVG Export Plug-In . SVG Version: 6.00 Build 0)  -->
<svg version="1.1" id="Capa_1" xmlns="http://www.w3.org/2000/svg" xmlns:xlink="http://www.w3.org/1999/xlink" x="0px" y="0px"
	 viewBox="0 0 475.08 475.08" enable-background="new 0 0 475.08 475.08" xml:space="preserve">
<path fill="#514F97" d="M376.16,376.16c7.13-7.13,15.75-10.7,25.84-10.7c10.08,0,18.7,3.57,25.83,10.7
	c7.14,7.14,10.71,15.75,10.71,25.84s-3.57,18.7-10.71,25.83c-7.13,7.14-15.75,10.71-25.83,10.71c-10.1,0-18.71-3.57-25.84-10.71
	c-7.13-7.13-10.71-15.74-10.71-25.83C365.45,391.91,369.03,383.3,376.16,376.16z M469.66,78.51c-3.62-3.62-7.9-5.43-12.85-5.43
	H113.92c-0.19-1.33-0.62-3.76-1.29-7.28c-0.67-3.52-1.19-6.33-1.57-8.42c-0.38-2.09-1.09-4.61-2.14-7.56
	c-1.05-2.95-2.28-5.29-3.71-6.99c-1.42-1.72-3.33-3.19-5.71-4.43c-2.38-1.23-5.09-1.85-8.14-1.85H18.28
	c-4.95,0-9.23,1.81-12.85,5.42C1.81,45.58,0,49.87,0,54.82s1.81,9.23,5.43,12.85c3.62,3.62,7.9,5.42,12.85,5.42h58.24l50.53,234.98
	c-0.38,0.76-2.33,4.37-5.85,10.85c-3.52,6.47-6.33,12.14-8.42,16.99c-2.09,4.86-3.14,8.62-3.14,11.28c0,4.95,1.81,9.23,5.42,12.85
	c3.62,3.61,7.9,5.42,12.85,5.42h18.27h0h255.82H402h18.25c4.95,0,9.23-1.81,12.85-5.42c3.62-3.62,5.43-7.9,5.43-12.85
	c0-4.95-1.81-9.23-5.43-12.85c-3.61-3.61-7.9-5.43-12.85-5.43H157.6c4.57-9.14,6.85-15.22,6.85-18.27c0-1.91-0.24-4-0.72-6.28
	s-1.05-4.8-1.71-7.57c-0.67-2.75-1.09-4.8-1.28-6.13l298.08-34.83c4.75-0.58,8.66-2.61,11.7-6.14c3.05-3.52,4.57-7.56,4.57-12.13
	V91.36C475.08,86.42,473.28,82.13,469.66,78.51z M109.63,402c0,10.09,3.57,18.7,10.71,25.83c7.14,7.14,15.75,10.71,25.84,10.71
	c10.09,0,18.7-3.57,25.84-10.71c7.14-7.13,10.71-15.74,10.71-25.83s-3.57-18.7-10.71-25.84c-7.14-7.13-15.75-10.7-25.84-10.7
	c-10.09,0-18.7,3.57-25.84,10.7C113.2,383.3,109.63,391.91,109.63,402z"/>
</svg>
