<?xml version="1.0" encoding="utf-8"?>
<!-- Generator: Adobe Illustrator 23.1.0, SVG Export Plug-In . SVG Version: 6.00 Build 0)  -->
<svg version="1.1" id="Capa_1" xmlns="http://www.w3.org/2000/svg" xmlns:xlink="http://www.w3.org/1999/xlink" x="0px" y="0px"
	 viewBox="0 0 490 490" enable-background="new 0 0 490 490" xml:space="preserve">
<path d="M144.36,191.79c0-7.98,6.47-14.45,14.45-14.45c7.98,0,14.45,6.47,14.45,14.45c0,7.98-6.47,14.45-14.45,14.45
	C150.83,206.23,144.36,199.77,144.36,191.79z M391.64,143.68h18.34c4.81,17.16,20.55,29.74,39.25,29.74
	c22.52,0,40.77-18.25,40.77-40.77c0-22.52-18.26-40.77-40.77-40.77c-18.69,0-34.44,12.58-39.25,29.74h-18.34
	c-6.09,0-11.03,4.94-11.03,11.03C380.61,138.74,385.54,143.68,391.64,143.68z M449.82,186.67c-10.62,0-20.05,5.06-26.03,12.9
	c-3.18,3.71-14.34,15.71-28.99,20.16c-15.98,4.86-32.24-3.53-32.32-3.58c-6.94-3.76-15.61-1.19-19.37,5.75
	c-3.76,6.94-0.86,15.07,5.75,19.37c13.89,9.04,41.82,9.58,54.26,5.8c5.01-1.52,9.69-3.57,13.99-5.88v69.73
	c0,10.51,4.96,19.85,12.65,25.83v127.91c0,11.08,8.98,20.05,20.06,20.05c11.08,0,20.06-8.98,20.06-20.05V336.75
	c7.7-5.98,12.65-15.33,12.65-25.83v-91.54C482.53,201.32,467.89,186.67,449.82,186.67z M391.36,260.75
	c-47.62,3.82-69.43-21.54-58.5-43c4.19-8.23,12.88-13.16,22.11-13.16c11.25,0,15.3,6.24,26.07,6.24c6.09,0,13.17-2.18,13.17-5.45
	V182.2c0-8.08-6.58-14.66-14.66-14.66h-42.08v19.13c0,1.38-1.12,2.51-2.51,2.51h-12.01c-1.39,0-2.51-1.12-2.51-2.51v-19.13h-42.08
	c-8.08,0-14.66,6.58-14.66,14.66v101.19c0,8.08,6.58,14.66,14.66,14.66h101.19c8.08,0,14.66-6.58,14.66-14.66v-20.16
	c0-0.73-0.32-1.42-0.86-1.89C392.81,260.86,392.09,260.69,391.36,260.75z M266.11,358.25v35.51c0,5.54-4.49,10.03-10.03,10.03H10.03
	C4.49,403.79,0,399.3,0,393.76v-35.51c0-5.54,4.49-10.03,10.03-10.03h20.31V20.32c0-8.31,6.73-15.04,15.04-15.04h175.35
	c8.31,0,15.04,6.73,15.04,15.04v327.9h20.31C261.62,348.22,266.11,352.71,266.11,358.25z M205.69,35.36H60.42v312.85h145.27V35.36z"
	/>
</svg>
