<?xml version="1.0" encoding="utf-8"?>
<!-- Generator: Adobe Illustrator 23.1.0, SVG Export Plug-In . SVG Version: 6.00 Build 0)  -->
<svg version="1.1" id="Capa_1" xmlns="http://www.w3.org/2000/svg" xmlns:xlink="http://www.w3.org/1999/xlink" x="0px" y="0px"
	 viewBox="0 0 490 490" enable-background="new 0 0 490 490" xml:space="preserve">
<path fill="#4E4F50" d="M144.4,191.8c0-8,6.5-14.4,14.4-14.4s14.4,6.5,14.4,14.4s-6.5,14.4-14.4,14.4
	C150.8,206.2,144.4,199.8,144.4,191.8z M391.6,143.7H410c4.8,17.2,20.5,29.7,39.3,29.7c22.5,0,40.8-18.3,40.8-40.8
	s-18.3-40.8-40.8-40.8c-18.7,0-34.4,12.6-39.3,29.7h-18.3c-6.1,0-11,4.9-11,11C380.6,138.7,385.5,143.7,391.6,143.7z M449.8,186.7
	c-10.6,0-20,5.1-26,12.9c-3.2,3.7-14.3,15.7-29,20.2c-16,4.9-32.2-3.5-32.3-3.6c-6.9-3.8-15.6-1.2-19.4,5.8s-0.9,15.1,5.8,19.4
	c13.9,9,41.8,9.6,54.3,5.8c5-1.5,9.7-3.6,14-5.9V311c0,10.5,5,19.9,12.6,25.8v127.9c0,11.1,9,20,20.1,20s20.1-9,20.1-20V336.8
	c7.7-6,12.6-15.3,12.6-25.8v-91.5C482.5,201.3,467.9,186.7,449.8,186.7z M391.4,260.8c-47.6,3.8-69.4-21.5-58.5-43
	c4.2-8.2,12.9-13.2,22.1-13.2c11.3,0,15.3,6.2,26.1,6.2c6.1,0,13.2-2.2,13.2-5.4v-23.2c0-8.1-6.6-14.7-14.7-14.7h-42.1v19.1
	c0,1.4-1.1,2.5-2.5,2.5h-12c-1.4,0-2.5-1.1-2.5-2.5v-19.1h-42.1c-8.1,0-14.7,6.6-14.7,14.7v101.2c0,8.1,6.6,14.7,14.7,14.7h101.2
	c8.1,0,14.7-6.6,14.7-14.7v-20.2c0-0.7-0.3-1.4-0.9-1.9C392.8,260.9,392.1,260.7,391.4,260.8z M266.1,358.3v35.5c0,5.5-4.5,10-10,10
	H10c-5.5,0-10-4.5-10-10v-35.5c0-5.5,4.5-10,10-10h20.3v-328c0-8.3,6.7-15,15-15h175.4c8.3,0,15,6.7,15,15v327.9H256
	C261.6,348.2,266.1,352.7,266.1,358.3z M205.7,35.4H60.4v312.9h145.3L205.7,35.4L205.7,35.4z"/>
</svg>
