<?xml version="1.0" encoding="iso-8859-1"?>
<!-- Generator: Adobe Illustrator 19.0.0, SVG Export Plug-In . SVG Version: 6.00 Build 0)  -->
<svg version="1.1" id="Layer_1" xmlns="http://www.w3.org/2000/svg" xmlns:xlink="http://www.w3.org/1999/xlink" x="0px" y="0px"
	 viewBox="0 0 512 512" style="enable-background:new 0 0 512 512;" xml:space="preserve">
<g>
	<g>
		<path d="M376.608,176.569H261.832c-10.499,0-19.011,8.512-19.011,19.011v12.522l32.246,5.165
			c19.328,3.096,32.535,21.34,29.438,40.668c-2.39,14.923-13.991,26.716-28.868,29.348c-2.029,0.359-4.103,0.541-6.164,0.541
			c-1.879,0-3.775-0.151-5.637-0.45l-21.016-3.367v30.348c0,10.499,8.512,19.011,19.011,19.011h114.775
			c10.499,0,19.011-8.512,19.011-19.011V195.58C395.619,185.081,387.107,176.569,376.608,176.569z"/>
	</g>
</g>
<g>
	<g>
		<path d="M272.783,227.522l-71.944-11.524l-23.723-52.043l31.446,38.659l15.608,2.5v-55.358c0-16.287-13.203-29.49-29.49-29.49
			h-52.59c-16.287,0-29.49,13.203-29.49,29.49v151.54l9.544,76.98L80.741,478.767c-5.063,12.287,0.794,26.351,13.081,31.413
			c12.29,5.064,26.352-0.799,31.413-13.081l43.812-106.339c1.579-3.834,2.142-8.012,1.631-12.126l-7.529-60.729h18.688l6.775,51.876
			l-23.966,113.169c-2.753,13.001,5.554,25.771,18.554,28.524s25.772-5.556,28.524-18.554l24.819-117.191
			c0.565-2.663,0.672-5.402,0.32-8.101l-11.815-90.466l-44.307-7.097c-16.653-2.664-26.257-16.224-27.709-23.49l-12.038-60.296
			l26.195,57.47c2.927,6.419,8.87,10.947,15.835,12.062l83.096,13.31c10.296,1.65,20.129-4.482,23.328-14.169
			C293.536,242.566,285.55,229.567,272.783,227.522z"/>
	</g>
</g>
<g>
	<g>
		<circle cx="168.617" cy="63.533" r="43.655"/>
	</g>
</g>
<g>
	<g>
		<path d="M415.544,77.355H278.451c-9.684,0-17.535,7.851-17.535,17.535v47.823c0,9.684,7.851,17.535,17.535,17.535h137.093
			c9.684,0,17.535-7.851,17.535-17.535V94.89C433.079,85.206,425.228,77.355,415.544,77.355z"/>
	</g>
</g>
<g>
	<g>
		<path d="M353.302,0H308.92c-4.655,0-8.428,3.773-8.428,8.428V52.81c0,4.655,3.774,8.428,8.428,8.428h44.382
			c4.655,0,8.428-3.773,8.428-8.428V8.428C361.73,3.773,357.957,0,353.302,0z"/>
	</g>
</g>
<g>
</g>
<g>
</g>
<g>
</g>
<g>
</g>
<g>
</g>
<g>
</g>
<g>
</g>
<g>
</g>
<g>
</g>
<g>
</g>
<g>
</g>
<g>
</g>
<g>
</g>
<g>
</g>
<g>
</g>
</svg>
