<?xml version="1.0" encoding="utf-8"?>
<!-- Generator: Adobe Illustrator 23.1.0, SVG Export Plug-In . SVG Version: 6.00 Build 0)  -->
<svg version="1.1" id="Capa_1" xmlns="http://www.w3.org/2000/svg" xmlns:xlink="http://www.w3.org/1999/xlink" x="0px" y="0px"
	 viewBox="0 0 489.79 489.79" enable-background="new 0 0 489.79 489.79" xml:space="preserve">
<path d="M409.77,379.33l-81.36-124.98c-5.88-9.05-15.92-13.12-25.99-13.12c-2.08,0-6.39,0.05-11.05,0.11
	c-0.36-0.61-0.74-1.22-1.35-1.63l-20.49-13.61c-2.36-1.57-5.43-1.49-7.7,0.18l-16.95,12.51l-16.96-12.51
	c-2.28-1.67-5.34-1.75-7.72-0.18l-20.46,13.61c-0.58,0.38-0.95,0.91-1.28,1.46c-4.83,0.03-9.33,0.06-11.22,0.06
	c-10.02,0-20.01,4.12-25.86,13.11L80.02,379.33c-8.65,13.27-5.15,31.01,7.9,39.99l18.06,12.45c10.89-25.93,28.87-48.09,51.45-64.28
	l4.66-7.16v3.86c16.36-10.81,34.94-18.48,54.88-22.23c-5.93-13.15-10.9-28.82-14.55-43.59c-4.25-17.23-6.74-33.2-6.74-42.24
	c0-3.35,0.43-6.58,1.09-9.73l14.8,48.97c0.77,2.57,2.98,4.42,5.64,4.73c0.27,0.03,0.53,0.05,0.78,0.05c2.36,0,4.6-1.25,5.82-3.34
	l11.54-19.87l3.25,3.23c-7.77,10.28-10.82,39.2-12.01,60.31c5.99-0.73,12.07-1.22,18.25-1.22c6.2,0,12.29,0.5,18.3,1.23
	c-1.19-21.11-4.24-50.04-12.02-60.32l3.25-3.26l11.57,19.89c1.22,2.09,3.42,3.34,5.8,3.34c0.26,0,0.52-0.02,0.78-0.05
	c2.65-0.31,4.87-2.17,5.66-4.73l14.79-48.87c0.63,3.12,1.05,6.31,1.05,9.62c0,16.81-8.42,57.34-21.28,85.83
	c19.98,3.77,38.59,11.45,54.95,22.29v-3.9l4.73,7.26c22.5,16.19,40.44,38.32,51.29,64.21l18.14-12.49
	C414.92,410.33,418.4,392.59,409.77,379.33z M219.96,276.68l-8.61-28.53l12.39-8.24l12.32,9.09L219.96,276.68z M269.78,276.68
	L253.7,249l12.31-9.09l12.4,8.24L269.78,276.68z M244.87,407.99c15.8,0,30.68,5.92,42.15,16.72l-14.71,19.36
	c-8.15-4.92-17.62-7.61-27.46-7.61c-9.83,0-19.28,2.69-27.43,7.61l-14.71-19.35C214.16,413.92,229.05,407.99,244.87,407.99z
	 M244.9,180.52c26.28,0,50.8-7.85,68.17-19.92c-0.48,25.47-15,47.27-36.06,58.58c-9.61,5.17-20.43,8.37-32.11,8.37
	c-11.7,0-22.55-3.2-32.17-8.38c-21.07-11.33-35.53-33.14-36.03-58.59C194.1,172.68,218.62,180.52,244.9,180.52z M151.5,87.84
	c-3.96-4.44-6.24-9.9-6.24-16.78C145.27,39.88,189.87,0,244.9,0c54.98,0,99.63,39.88,99.63,71.06c0,6.88-2.29,12.35-6.27,16.78
	c-5.08,5.68-13.02,9.64-23.24,12.3l0.21,20.2c-0.02,15.99-31.48,36.82-70.33,36.82c-38.86,0-70.34-20.83-70.38-36.82l0.23-20.21
	C164.53,97.48,156.59,93.52,151.5,87.84z M244.85,356.92c-73.26,0-132.86,59.61-132.86,132.86h33.47c0-0.05,0-0.11,0-0.16v-0.03
	c1.09-6.56,6.71-11.33,13.31-11.33c0.11,0,0.24,0.01,0.37,0.01l51.71,1.34c-0.97,3.25-1.65,6.62-1.65,10.18h71.32
	c0-3.56-0.67-6.93-1.66-10.18l51.72-1.34c0.11,0,0.22-0.01,0.35-0.01c6.59,0,12.24,4.78,13.32,11.33v0.03c0,0.05,0,0.11,0,0.16
	h33.44C377.71,416.53,318.12,356.92,244.85,356.92z M302.2,433.91l-27.56,36.32c-6.39-9.69-17.33-16.1-29.79-16.1
	c-12.44,0-23.39,6.41-29.76,16.1l-27.55-36.3c-4.7-6.19-4.11-14.92,1.39-20.42c15.45-15.44,35.69-23.17,55.94-23.17
	c20.25,0,40.48,7.72,55.96,23.18C306.32,419.01,306.9,427.72,302.2,433.91z"/>
</svg>
