<?xml version="1.0" encoding="utf-8"?>
<!-- Generator: Adobe Illustrator 23.1.0, SVG Export Plug-In . SVG Version: 6.00 Build 0)  -->
<svg version="1.1" id="Layer_1" xmlns="http://www.w3.org/2000/svg" xmlns:xlink="http://www.w3.org/1999/xlink" x="0px" y="0px"
	 viewBox="0 0 700 700" enable-background="new 0 0 700 700" xml:space="preserve">
<path d="M198.11,210v-10h313.02v10c0,5.52-4.13,10-9.21,10H207.31C202.23,219.99,198.11,215.52,198.11,210z M409.86,80
	c0-5.52-4.13-10-9.21-10h-92.06c-5.08,0-9.2,4.48-9.21,10v10h110.48V80z M210.72,280h-12.61c-5.08,0-9.2,4.48-9.21,10
	c-0.03,2.61,0.93,5.11,2.65,6.93c1.7,1.96,4.08,3.07,6.56,3.07h13.95L210.72,280z M511.13,170c0-5.52-4.13-10-9.21-10H207.31
	c-5.08,0-9.2,4.48-9.21,10v10h313.02V170z M216.52,510c-5.08,0-9.2,4.48-9.21,10v60c0,5.52,4.12,10,9.21,10h15.23l-5.44-80H216.52z
	 M470.38,116.28c-1.39-3.8-4.78-6.29-8.54-6.28H247.4c-3.77-0.01-7.16,2.48-8.55,6.29L230.12,140h249L470.38,116.28z M465.43,495.7
	c-0.63,1.34-0.96,2.81-0.98,4.31c0.05,0.93,0.22,1.84,0.5,2.71l-6.74,99.32c-1.01,15.73-13.04,27.94-27.55,27.97h-4.27
	l-22.68-106.75c-2.85-13.64-14.03-23.3-26.91-23.25h-44.36c-12.87-0.05-24.06,9.61-26.91,23.25L282.85,630h-4.27
	c-14.54-0.04-26.57-12.28-27.56-28.04l-6.74-99.23c0.29-0.88,0.46-1.8,0.51-2.73c-0.02-1.5-0.36-2.98-0.99-4.32L231.13,309.3l0-0.02
	l-2.67-40l0-0.02v-0.01L226.44,240H482.8l-2.03,29.93l-0.01,0.07l0,0.04L465.43,495.7z M428.26,283.1c-0.03-4.61-2.95-8.6-7.08-9.67
	s-8.39,1.07-10.33,5.18c-14.49,30.84-32.81,34.48-54.02,38.71c-17.74,1.8-34.53,9.52-48.07,22.1
	c-23.61,24.68-24.85,65.27-2.82,91.61c-6.25,11.48-10.67,24.01-13.1,37.08c-0.46,2.61,0.05,5.3,1.41,7.5
	c1.37,2.2,3.48,3.71,5.88,4.21c0.58,0.12,1.17,0.18,1.75,0.18c4.41,0,8.2-3.4,9.03-8.11c1.86-9.91,5.13-19.43,9.7-28.24
	c8.16,4.99,17.32,7.77,26.68,8.09c0.64,0.02,1.29,0.03,1.92,0.03c15.05,0.02,29.52-6.3,40.37-17.63l0,0
	C424.15,398.39,428.54,337.73,428.26,283.1z M511.13,280L511.13,280h-12.58l-1.36,20h13.94c2.4,0.02,4.7-1.01,6.39-2.87
	c1.81-1.85,2.82-4.43,2.82-7.13C520.33,284.48,516.21,280,511.13,280z M492.72,510h-9.79l-5.43,80h15.23c5.08,0,9.2-4.48,9.21-10
	v-60C501.92,514.48,497.8,510,492.72,510z M376.8,520h-44.36c-4.29-0.02-8.02,3.2-8.97,7.74L301.74,630h105.75l-21.73-102.26
	C384.81,523.2,381.09,519.98,376.8,520z M321.47,353.89L321.47,353.89c-15.1,15.86-17.07,41.39-4.61,59.76
	c9.6-13.33,20.92-25.09,33.59-34.93c4.22-3.04,9.91-1.81,12.74,2.75c2.82,4.57,1.72,10.76-2.47,13.85
	c-11.27,8.91-21.33,19.5-29.89,31.45c5.27,3.03,11.1,4.73,17.06,4.98c10.76,0.32,21.19-4.03,29-12.08
	c23.36-24.18,30.51-65.51,32.38-105.14c-13.87,12.77-31.01,20.6-49.12,22.45C345.96,338.14,332.44,344.04,321.47,353.89z"/>
</svg>
