<?xml version="1.0" encoding="utf-8"?>
<!-- Generator: Adobe Illustrator 23.1.0, SVG Export Plug-In . SVG Version: 6.00 Build 0)  -->
<svg version="1.1"
	 id="svg645" inkscape:version="1.0 (4035a4fb49, 2020-05-01)" sodipodi:docname="self propelled mower, mower, lawn mower, garden.svg" xmlns:cc="http://creativecommons.org/ns#" xmlns:dc="http://purl.org/dc/elements/1.1/" xmlns:inkscape="http://www.inkscape.org/namespaces/inkscape" xmlns:rdf="http://www.w3.org/1999/02/22-rdf-syntax-ns#" xmlns:sodipodi="http://sodipodi.sourceforge.net/DTD/sodipodi-0.dtd" xmlns:svg="http://www.w3.org/2000/svg"
	 xmlns="http://www.w3.org/2000/svg" xmlns:xlink="http://www.w3.org/1999/xlink" x="0px" y="0px" viewBox="0 0 64 64"
	 enable-background="new 0 0 64 64" xml:space="preserve">
<sodipodi:namedview  bordercolor="#666666" borderopacity="1.0" id="base" inkscape:current-layer="layer1" inkscape:cx="16.215983" inkscape:cy="38.39334" inkscape:document-rotation="0" inkscape:document-units="px" inkscape:pageopacity="0.0" inkscape:pageshadow="2" inkscape:window-height="706" inkscape:window-maximized="1" inkscape:window-width="1366" inkscape:window-x="-8" inkscape:window-y="-8" inkscape:zoom="6.5922474" pagecolor="#ffffff" showgrid="false" units="px">
	</sodipodi:namedview>
<path fill="#514F97" d="M33.88,48.58c-1.72,0-3.12,1.41-3.12,3.12c0,1.72,1.41,3.13,3.12,3.13s3.13-1.42,3.13-3.13
	C37.01,49.99,35.59,48.58,33.88,48.58z M33.88,52.84c-0.63,0-1.12-0.5-1.12-1.13c0-0.63,0.49-1.12,1.12-1.12s1.13,0.49,1.13,1.12
	C35.01,52.34,34.51,52.84,33.88,52.84z M53.57,26.47c0.78-0.78,1.17-1.8,1.2-2.83l7.19-7.19c0.66-0.66,1.03-1.55,1.03-2.49
	c0-0.93-0.38-1.83-1.03-2.49c-2.14-2.14-5.43-5.43-5.43-5.43c-0.58-0.58-1.35-0.87-2.12-0.87s-1.54,0.29-2.12,0.87
	c0,0-0.01,0.01-0.01,0.01c0,0-0.01,0.01-0.01,0.01c-0.05,0.05-0.09,0.1-0.13,0.16c-1.02,1.17-0.99,2.97,0.13,4.09l3.66,3.66
	l-5.42,5.42c-0.71,0.02-1.4,0.22-2.03,0.59l-1.34-1.34c0.48-1.06,0.29-2.35-0.57-3.22c-1.11-1.11-2.95-1.11-4.07,0
	c-1.11,1.11-1.11,2.95,0,4.06c0.86,0.86,2.16,1.05,3.22,0.57l1.34,1.34c-0.37,0.62-0.57,1.32-0.59,2.03L32.07,37.82
	c-0.01,0.01-0.02,0.01-0.02,0.02l-4.06,4.08L27,41.97v-2.39h1c0.55,0,1-0.45,1-1v-4c0-0.55-0.45-1-1-1h-1v-0.66
	c0-0.89-0.35-1.74-0.98-2.37c-0.63-0.63-1.48-0.97-2.36-0.97h-5.31c-0.89,0-1.74,0.35-2.36,0.97C15.35,31.19,15,32.04,15,32.93v0.66
	H13c-0.27,0-0.52,0.1-0.71,0.29l-2,2C10.1,36.06,10,36.32,10,36.58v2c0,0.55,0.45,1,1,1h1v3.01l-1.09,0.04
	c-1.26,0.05-2.51,0.51-3.46,1.45c-0.03,0.03-0.06,0.06-0.08,0.09C6.62,45.12,6.25,46,6.1,46.91C3.22,47.35,1,49.84,1,52.84
	c0,3.3,2.7,6,6,6c2.31,0,4.32-1.33,5.32-3.26H16h11.91c1.27,1.96,3.47,3.26,5.97,3.26c2.5,0,4.7-1.3,5.97-3.26H42
	c1.52,0,2.78-1.16,2.97-2.63H49c0.15,0,0.3-0.03,0.44-0.1l11-5.38c0.34-0.17,0.56-0.51,0.56-0.89v-12v-2c0-0.55-0.45-1-1-1
	c-0.55,0-0.99,0.45-1,1v1H48.61c-0.25,0-0.49,0.09-0.68,0.27l-4.01,3.73l-3.08-0.01l9.9-9.9C51.77,27.64,52.79,27.25,53.57,26.47z
	 M45.16,18.06c-0.35,0.35-0.88,0.35-1.23,0c-0.35-0.35-0.35-0.89,0-1.24c0.17-0.17,0.39-0.26,0.62-0.26s0.44,0.09,0.62,0.26
	C45.51,17.17,45.5,17.71,45.16,18.06z M45.03,39.27L49,35.59h10v1.99v3.07l-10.27,5.93h-3.71L45.03,39.27z M45.01,48.58H49
	c0.18,0,0.35-0.05,0.5-0.14l9.5-5.48v3l-10.23,4.99h-3.76L45.01,48.58z M58.06,14.66c0.39-0.39,0.39-1.02,0-1.41l-4.37-4.37
	c-0.4-0.4-0.39-1.01,0-1.42c0,0,0-0.01,0-0.01c0,0,0.01,0,0.01,0c0,0,0-0.01,0-0.01c0,0,0.01,0,0.01,0c0.2-0.2,0.45-0.3,0.71-0.3
	c0.25,0,0.51,0.1,0.71,0.3c0,0,3.3,3.3,5.43,5.43c0.29,0.29,0.44,0.68,0.44,1.08c0,0.4-0.16,0.79-0.44,1.07l-6.37,6.36
	c-0.17-0.29-0.37-0.56-0.61-0.81c-0.25-0.25-0.53-0.45-0.82-0.62L58.06,14.66z M17,32.93c0-0.36,0.15-0.7,0.4-0.95
	c0.25-0.25,0.59-0.39,0.95-0.39h5.31c0.36,0,0.7,0.14,0.95,0.39c0.25,0.25,0.39,0.59,0.39,0.95v0.66h-8V32.93z M12,36.99l1.42-1.41
	H27v1.99H12V36.99z M7,56.84c-2.22,0-4-1.78-4-4c0-2.22,1.78-4,4-4s3.99,1.78,3.99,4C10.99,55.05,9.22,56.84,7,56.84z M15,53.58
	h-2.05c0.03-0.25,0.05-0.49,0.05-0.75c0-2.92-2.1-5.36-4.87-5.89c0.11-0.46,0.31-0.85,0.79-1.47c0.54-0.51,1.26-0.81,2.07-0.84
	l1.96-0.08c0.02,0,0.04,0,0.06,0c0.04,0,0.08,0,0.12-0.01L15,44.47V53.58z M14,42.51v-2.93h11v2.47L14,42.51z M33.88,56.84
	c-2.84,0-5.12-2.29-5.12-5.13c0-2.84,2.28-5.12,5.12-5.12s5.13,2.28,5.13,5.12C39.01,54.55,36.72,56.84,33.88,56.84z M43.03,39.58
	l-0.01,7.88C43.01,47.49,43,47.54,43,47.58c0,0.04,0,0.08,0.01,0.12L43,52.58c0,0.57-0.44,1-1,1h-1.25c0.16-0.6,0.26-1.23,0.26-1.88
	c0-3.92-3.21-7.12-7.13-7.12s-7.12,3.2-7.12,7.12c0,0.65,0.09,1.28,0.26,1.88H17v-9.2l8.83-0.37c0.06,0.01,0.12,0.02,0.17,0.02
	c0.09,0,0.17-0.01,0.25-0.03l2.21-0.09c0.25-0.01,0.49-0.12,0.67-0.29l4.04-4.06L43.03,39.58z M38.02,37.56l-2.86-0.01l11.9-11.9
	c0.17,0.29,0.37,0.57,0.62,0.81c0.25,0.25,0.53,0.45,0.81,0.62L38.02,37.56z M49.1,25.05c-0.85-0.85-0.85-2.2,0-3.06
	c0.43-0.42,0.98-0.63,1.53-0.63c0.55,0,1.1,0.21,1.53,0.63c0.85,0.85,0.85,2.21,0,3.06C51.3,25.9,49.95,25.9,49.1,25.05z"/>
</svg>
