<?xml version="1.0" encoding="utf-8"?>
<!-- Generator: Adobe Illustrator 23.1.0, SVG Export Plug-In . SVG Version: 6.00 Build 0)  -->
<svg version="1.1" id="Layer_1" xmlns="http://www.w3.org/2000/svg" xmlns:xlink="http://www.w3.org/1999/xlink" x="0px" y="0px"
	 viewBox="0 0 700 700" enable-background="new 0 0 700 700" xml:space="preserve">
<path fill="#4E4F50" d="M159,175v-12.5h391.3V175c0,6.9-5.2,12.5-11.5,12.5H170.5C164.1,187.5,159,181.9,159,175z M423.7,12.5
	c0-6.9-5.2-12.5-11.5-12.5H297.1c-6.3,0-11.5,5.6-11.5,12.5V25h138.1V12.5L423.7,12.5z M174.8,262.5H159c-6.3,0-11.5,5.6-11.5,12.5
	c0,3.3,1.2,6.4,3.3,8.7c2.1,2.4,5.1,3.8,8.2,3.8h17.4L174.8,262.5z M550.3,125c0-6.9-5.2-12.5-11.5-12.5H170.5
	c-6.3,0-11.5,5.6-11.5,12.5v12.5h391.3V125L550.3,125z M182,550c-6.3,0-11.5,5.6-11.5,12.5v75c0,6.9,5.1,12.5,11.5,12.5h19l-6.8-100
	H182z M499.3,57.9c-1.7-4.7-6-7.9-10.7-7.8h-268c-4.7,0-8.9,3.1-10.7,7.9L199,87.5h311.2L499.3,57.9z M493.1,532.1
	c-0.8,1.7-1.2,3.5-1.2,5.4c0.1,1.2,0.3,2.3,0.6,3.4L484.1,665c-1.3,19.7-16.3,34.9-34.4,35h-5.3L416,566.6
	c-3.6-17-17.5-29.1-33.6-29.1H327c-16.1-0.1-30.1,12-33.6,29.1L264.9,700h-5.3c-18.2,0-33.2-15.3-34.4-35l-8.4-124
	c0.4-1.1,0.6-2.2,0.6-3.4c0-1.9-0.4-3.7-1.2-5.4l-15.8-233l0,0l-3.3-50l0,0l0,0l-2.5-36.6H515l-2.5,37.4v0.1v0.1L493.1,532.1z
	 M446.7,266.4c0-5.8-3.7-10.7-8.8-12.1c-5.2-1.3-10.5,1.3-12.9,6.5c-18.1,38.5-41,43.1-67.5,48.4c-22.2,2.2-43.2,11.9-60.1,27.6
	c-29.5,30.8-31.1,81.6-3.5,114.5c-7.8,14.3-13.3,30-16.4,46.3c-0.6,3.3,0.1,6.6,1.8,9.4c1.7,2.7,4.3,4.6,7.3,5.3
	c0.7,0.1,1.5,0.2,2.2,0.2c5.5,0,10.2-4.2,11.3-10.1c2.3-12.4,6.4-24.3,12.1-35.3c10.2,6.2,21.6,9.7,33.3,10.1c0.8,0,1.6,0,2.4,0
	c18.8,0,36.9-7.9,50.5-22l0,0C441.5,410.5,447,334.7,446.7,266.4z M550.3,262.5L550.3,262.5h-15.7l-1.7,25h17.4c3,0,5.9-1.3,8-3.6
	c2.3-2.3,3.5-5.5,3.5-8.9C561.8,268.1,556.6,262.5,550.3,262.5z M527.2,550H515l-6.8,100h19c6.3,0,11.5-5.6,11.5-12.5v-75
	C538.7,555.6,533.6,550,527.2,550z M382.3,562.5h-55.4c-5.4,0-10,4-11.2,9.7L288.5,700h132.2l-27.2-127.8
	C392.4,566.5,387.7,562.5,382.3,562.5z M313.2,354.9L313.2,354.9c-18.9,19.8-21.3,51.7-5.8,74.7c12-16.7,26.1-31.4,42-43.7
	c5.3-3.8,12.4-2.3,15.9,3.4c3.5,5.7,2.1,13.4-3.1,17.3c-14.1,11.1-26.7,24.4-37.4,39.3c6.6,3.8,13.9,5.9,21.3,6.2
	c13.4,0.4,26.5-5,36.2-15.1c29.2-30.2,38.1-81.9,40.5-131.4c-17.3,16-38.8,25.7-61.4,28.1C343.8,335.2,326.9,342.5,313.2,354.9z"/>
</svg>
