<?xml version="1.0" encoding="utf-8"?>
<!-- Generator: Adobe Illustrator 23.1.0, SVG Export Plug-In . SVG Version: 6.00 Build 0)  -->
<svg version="1.1" id="Layer_1" xmlns="http://www.w3.org/2000/svg" xmlns:xlink="http://www.w3.org/1999/xlink" x="0px" y="0px"
	 viewBox="0 0 222.28 222.28" enable-background="new 0 0 222.28 222.28" xml:space="preserve">
<path d="M74.78,181.87H86.9v8.08H74.78v12.12H66.7v-12.12H54.57v-8.08H66.7v-12.12h8.08V181.87z M123.26,72.78
	c0-4.46,3.63-8.08,8.08-8.08s8.08,3.62,8.08,8.08v4.04h8.08v-4.04c0-8.91-7.25-16.16-16.16-16.16s-16.16,7.25-16.16,16.16v4.04h8.08
	V72.78z M86.9,56.62c-8.91,0-16.16,7.25-16.16,16.16v4.04h8.08v-4.04c0-4.46,3.63-8.08,8.08-8.08s8.08,3.62,8.08,8.08v4.04h8.08
	v-4.04C103.06,63.87,95.81,56.62,86.9,56.62z M195.99,185.91v36.36H26.29v-36.36c0-20.05,16.31-36.36,36.36-36.36h28.29v-10.9
	c-29.41-8.59-50.97-35.75-50.97-67.89C39.97,31.74,71.71,0,110.73,0c39.02,0,70.76,31.74,70.76,70.76
	c0,31.85-21.16,58.83-50.15,67.68v11.11h28.29C179.68,149.55,195.99,165.86,195.99,185.91z M61.25,32.42
	c0.45-0.02,0.89-0.04,1.4-0.04c11.66,0,22.68-4.48,31.03-12.63l3.87-3.78l2.53,4.78c7.73,14.65,22.8,23.74,39.34,23.74
	c8.7,0,17.01-2.5,24.22-7.2c-11.13-17.53-30.66-29.22-52.91-29.22C90.61,8.08,72.73,17.64,61.25,32.42z M109.64,133.39h2.18
	c34.06-0.59,61.59-28.43,61.59-62.63c0-9.42-2.15-18.32-5.88-26.34c-8.4,5.34-18.03,8.16-28.1,8.16c-17.84,0-34.23-8.95-43.9-23.67
	c-9.3,7.48-20.79,11.55-32.87,11.55c-1.06,0-1.92,0.08-2.72,0.14c-1.27,0.1-2.57,0.21-4.16,0.07c-4.92,8.94-7.72,19.19-7.72,30.1
	C48.05,104.96,75.58,132.8,109.64,133.39z M187.91,185.92c0-15.59-12.69-28.28-28.27-28.28h-36.37v-16.16h-11.44
	c-0.37,0-0.72,0.05-1.09,0.05c-0.37,0-0.72-0.05-1.09-0.05H99.02v16.16H62.65c-15.59,0-28.28,12.69-28.28,28.28v28.28h153.54V185.92
	z"/>
</svg>
