<?xml version="1.0" encoding="utf-8"?>
<!-- Generator: Adobe Illustrator 23.1.0, SVG Export Plug-In . SVG Version: 6.00 Build 0)  -->
<svg version="1.1" id="Layer_1" xmlns="http://www.w3.org/2000/svg" xmlns:xlink="http://www.w3.org/1999/xlink" x="0px" y="0px"
	 viewBox="0 0 64 64" enable-background="new 0 0 64 64" xml:space="preserve">
<path fill="#514F97" d="M40.73,35.53v-8.05c0-0.4,0.32-0.72,0.73-0.72h2.43c0.4,0,0.72,0.32,0.72,0.72v8.05
	c0,0.4-0.32,0.72-0.72,0.72h-2.43C41.05,36.25,40.73,35.93,40.73,35.53z M41.46,47.25h2.43c0.4,0,0.72-0.32,0.72-0.72v-8.05
	c0-0.4-0.32-0.72-0.72-0.72h-2.43c-0.4,0-0.73,0.32-0.73,0.72v8.05C40.73,46.93,41.05,47.25,41.46,47.25z M54.78,28.75
	c-0.4,0-0.72,0.32-0.72,0.72v11.05c0,0.4,0.32,0.72,0.72,0.72c0.4,0,0.73-0.32,0.73-0.72V29.47C55.51,29.07,55.19,28.75,54.78,28.75
	z M14.05,38.75h-2.91c-0.4,0-0.73,0.32-0.73,0.72v3.05c0,0.4,0.32,0.72,0.73,0.72h2.91c0.4,0,0.73-0.32,0.73-0.72v-3.05
	C14.78,39.07,14.46,38.75,14.05,38.75z M20.38,14.32c-0.26-0.29-0.24-0.73,0.04-1l7.68-7.46c0.28-0.27,0.73-0.27,1.01,0l9.46,9.19
	c0.14,0.14,0.22,0.32,0.22,0.52v12.94c0,0.66-0.8,0.98-1.25,0.5l-7.27-7.74c-0.39-0.37-1-0.37-1.39,0l-4.36,4.66
	c-0.45,0.48-1.25,0.16-1.25-0.5V18C23.43,17.57,21.33,15.38,20.38,14.32z M32.27,20c-0.01,0.41,0.32,0.74,0.73,0.75h3.88
	c0,0,0,0,0,0c0.41-0.01,0.74-0.34,0.73-0.75v-4c0,0,0,0,0,0c0.01-0.41-0.32-0.74-0.73-0.75H33c0,0,0,0,0,0
	c-0.41,0.01-0.74,0.34-0.73,0.75V20C32.27,20,32.27,20,32.27,20z M34.42,19.25h0.97c0.4,0,0.72-0.32,0.72-0.72v-1.05
	c0-0.4-0.32-0.72-0.72-0.72h-0.97c-0.4,0-0.72,0.32-0.72,0.72v1.05C33.7,18.93,34.02,19.25,34.42,19.25z M64,51.72v0.55
	c0,0.4-0.32,0.72-0.72,0.72H0.72C0.32,53,0,52.68,0,52.28v-0.55C0,51.32,0.32,51,0.72,51h4.37c0.4,0,0.73-0.32,0.73-0.72V18.65
	c0-0.18,0.06-0.34,0.18-0.48l6.06-6.94c0.8-0.92,2.23-0.92,3.03,0l6.05,6.94c0.12,0.13,0.18,0.3,0.18,0.48v10.43
	c0,0.17-0.06,0.34-0.17,0.47c-0.68,0.77-2.87,2.73-2.74,3.28v17.45c0,0.4,0.32,0.72,0.73,0.72h0.49c0.4,0,0.72-0.32,0.72-0.72V33.53
	c0-0.18,0.07-0.36,0.2-0.5L29.05,24c0.29-0.3,0.77-0.3,1.06,0l8.49,9.03c0.13,0.13,0.2,0.31,0.2,0.5v16.75
	c0,0.4,0.32,0.72,0.73,0.72h0.49c0.4,0,0.72-0.32,0.72-0.72v-0.8c0-0.4,0.32-0.72,0.73-0.72h2.43c0.4,0,0.72,0.32,0.72,0.72v0.8
	c0,0.4,0.32,0.72,0.73,0.72h0.49c0.4,0,0.72-0.32,0.72-0.72V23.58c0-0.16,0.05-0.31,0.15-0.44l5.09-6.75c0.29-0.38,0.87-0.38,1.16,0
	l5.09,6.75c0.09,0.13,0.15,0.28,0.15,0.44v26.69c0,0.4,0.32,0.72,0.73,0.72h4.37C63.68,51,64,51.32,64,51.72z M16.27,38
	c0.01-0.4-0.32-0.74-0.72-0.75H9.73c0,0,0,0,0,0C9.32,37.26,8.99,37.59,9,38v6c-0.01,0.4,0.3,0.73,0.7,0.75h5.85
	c0.4-0.01,0.73-0.35,0.72-0.75V38z M57,28c0-0.01,0-0.02,0-0.03c-0.01-0.41-0.35-0.73-0.76-0.72h-2.91
	c-0.4,0.01-0.73,0.35-0.72,0.75v14c-0.01,0.4,0.32,0.74,0.72,0.75h2.94c0,0,0,0,0,0c0.41-0.01,0.74-0.34,0.73-0.75V28z"/>
</svg>
