<?xml version="1.0" encoding="utf-8"?>
<!-- Generator: Adobe Illustrator 23.1.0, SVG Export Plug-In . SVG Version: 6.00 Build 0)  -->
<svg version="1.1" id="Layer_1" xmlns="http://www.w3.org/2000/svg" xmlns:xlink="http://www.w3.org/1999/xlink" x="0px" y="0px"
	 viewBox="0 0 73.5 64.9" enable-background="new 0 0 73.5 64.9" xml:space="preserve">
<path fill="#4E4F50" d="M72.4,32.8c0,2.2-1.8,4-4,4h-6v24.5c0,1.3-1,2.3-2.3,2.3H46.6V45.8c0-2.6-2.1-4.6-4.6-4.6H32
	c-2.6,0-4.6,2.1-4.6,4.6v17.9H13.9c-1.3,0-2.3-1-2.3-2.3V36.9h-6c-1.6,0-3.1-1-3.7-2.6C1.3,32.7,1.7,31,3,29.9L34.5,2.6
	c1.5-1.3,3.7-1.3,5.2,0l13.8,12v-2.8c0-1.3,1.1-2.4,2.4-2.4h4.9c1.3,0,2.4,1.1,2.4,2.4V23l7.7,6.7C71.8,30.4,72.4,31.5,72.4,32.8z"
	/>
</svg>
