<?xml version="1.0" encoding="utf-8"?>
<!-- Generator: Adobe Illustrator 23.1.0, SVG Export Plug-In . SVG Version: 6.00 Build 0)  -->
<svg version="1.1" id="Layer_1" xmlns="http://www.w3.org/2000/svg" xmlns:xlink="http://www.w3.org/1999/xlink" x="0px" y="0px"
	 viewBox="0 0 73.5 64.9" enable-background="new 0 0 73.5 64.9" xml:space="preserve">
<path fill="#4E4F50" d="M73.8,32.8c0,2.3-1.9,4.2-4.2,4.2h-6.2v25.4c0,1.4-1,2.4-2.4,2.4H47V46.3c0-2.7-2.2-4.8-4.8-4.8H31.8
	c-2.7,0-4.8,2.2-4.8,4.8v18.6H13c-1.4,0-2.4-1-2.4-2.4V37.1H4.4c-1.7,0-3.2-1-3.8-2.7S0.4,31,1.7,29.8L34.4,1.4
	C36,0,38.2,0,39.8,1.4l14.3,12.5V11c0-1.4,1.1-2.5,2.5-2.5h5.1c1.4,0,2.5,1.1,2.5,2.5v11.6l8,7C73.1,30.3,73.8,31.5,73.8,32.8z"/>
</svg>
