<?xml version="1.0" encoding="utf-8"?>
<!-- Generator: Adobe Illustrator 23.1.0, SVG Export Plug-In . SVG Version: 6.00 Build 0)  -->
<svg version="1.1" id="Layer_1" xmlns="http://www.w3.org/2000/svg" xmlns:xlink="http://www.w3.org/1999/xlink" x="0px" y="0px"
	 viewBox="0 0 721.11 582.53" enable-background="new 0 0 721.11 582.53" xml:space="preserve">
<path fill="#3F3D56" d="M480.19,582.53l-0.15-0.01l-239.12-22.21l-217.44,20.2c-11.82,1.1-22.3-7.6-23.39-19.42
	C0.03,560.43,0,559.77,0,559.1V41.97c-0.05-11.12,8.43-20.42,19.51-21.41L240.92,0l0.15,0.01l239.12,22.21l217.43-20.2
	c11.82-1.1,22.3,7.6,23.39,19.42c0.06,0.66,0.09,1.32,0.09,1.99v517.13c0.05,11.12-8.43,20.42-19.51,21.41L480.19,582.53z"/>
<path fill="#FFFFFF" d="M333.32,191.31c-46.29-33.71-94.99-65.68-144.74-95l-2.5-1.47v99.47h151.34L333.32,191.31z M189.39,191
	v-90.37c47.33,28,93.67,58.37,137.87,90.37L189.39,191z M567.57,395.73c-20.02-20.81-40.55-41.15-61.61-61.01
	c-5.8-5.48-11.64-10.92-17.52-16.31c-35.86-32.94-72.9-64.27-111.12-93.99l-0.45-0.35H186.09v174.46h384.18L567.57,395.73z
	 M189.39,395.23V227.38h186.35c36.85,28.67,72.71,58.94,107.56,90.81c6.05,5.53,12.06,11.11,18.03,16.73
	c20.87,19.61,41.25,39.72,61.14,60.31H189.39z M567.57,395.73c-20.02-20.81-40.55-41.15-61.61-61.01
	c-5.8-5.48-11.64-10.92-17.52-16.31c-35.86-32.94-72.9-64.27-111.12-93.99l-0.45-0.35H186.09v174.46h384.18L567.57,395.73z
	 M189.39,395.23V227.38h186.35c36.85,28.67,72.71,58.94,107.56,90.81c6.05,5.53,12.06,11.11,18.03,16.73
	c20.87,19.61,41.25,39.72,61.14,60.31H189.39z M333.32,191.31c-46.29-33.71-94.99-65.68-144.74-95l-2.5-1.47v99.47h151.34
	L333.32,191.31z M189.39,191v-90.37c47.33,28,93.67,58.37,137.87,90.37L189.39,191z M333.32,191.31
	c-46.29-33.71-94.99-65.68-144.74-95l-2.5-1.47v99.47h151.34L333.32,191.31z M189.39,191v-90.37c47.33,28,93.67,58.37,137.87,90.37
	L189.39,191z M567.57,395.73c-20.02-20.81-40.55-41.15-61.61-61.01c-5.8-5.48-11.64-10.92-17.52-16.31
	c-35.86-32.94-72.9-64.27-111.12-93.99l-0.45-0.35H186.09v174.46h384.18L567.57,395.73z M189.39,395.23V227.38h186.35
	c36.85,28.67,72.71,58.94,107.56,90.81c6.05,5.53,12.06,11.11,18.03,16.73c20.87,19.61,41.25,39.72,61.14,60.31H189.39z
	 M22.39,428.3v3.31h130.62v47.96H22.39v3.31h133.93V428.3H22.39z M186.09,512.64v33.51l3.31-0.31v-29.9h509.33v-3.31L186.09,512.64z
	 M698.73,431.61v-3.31H186.09v54.57h512.64v-3.31H189.39v-47.96L698.73,431.61z M389.86,191C326.41,142.05,259.4,97.9,189.39,58.91
	V25.42l-3.31,0.31v33.75l2.55,2.8c69.72,38.88,136.46,82.9,199.66,131.68l0.45,0.35h309.99V191H389.86z M153.01,191H22.39v3.31
	h133.93V28.49l-3.31,0.31L153.01,191z M698.73,224.07H426.21l3.56,2.93c33.55,27.61,66.5,56.89,98.83,87.84
	c4.6,4.4,9.18,8.83,13.74,13.3c22.72,22.2,45,45.13,66.83,68.78l2.73,1.61h86.82v-3.31h-86.61c-21.6-23.42-43.66-46.15-66.2-68.21
	c-4.51-4.42-9.03-8.8-13.57-13.15c-31.64-30.35-63.95-59.18-96.93-86.48h263.31V224.07z M22.39,512.64v3.31h130.62v33.27l3.31-0.31
	v-36.27H22.39z M22.39,224.07v3.31h130.62v167.85H22.39v3.31h133.93V224.07H22.39z M333.32,191.31
	c-46.29-33.71-94.99-65.68-144.74-95l-2.5-1.47v99.47h151.34L333.32,191.31z M189.39,191v-90.37c47.33,28,93.67,58.37,137.87,90.37
	L189.39,191z M567.57,395.73c-20.02-20.81-40.55-41.15-61.61-61.01c-5.8-5.48-11.64-10.92-17.52-16.31
	c-35.86-32.94-72.9-64.27-111.12-93.99l-0.45-0.35H186.09v174.46h384.18L567.57,395.73z M189.39,395.23V227.38h186.35
	c36.85,28.67,72.71,58.94,107.56,90.81c6.05,5.53,12.06,11.11,18.03,16.73c20.87,19.61,41.25,39.72,61.14,60.31H189.39z
	 M333.32,191.31c-46.29-33.71-94.99-65.68-144.74-95l-2.5-1.47v99.47h151.34L333.32,191.31z M189.39,191v-90.37
	c47.33,28,93.67,58.37,137.87,90.37L189.39,191z M567.57,395.73c-20.02-20.81-40.55-41.15-61.61-61.01
	c-5.8-5.48-11.64-10.92-17.52-16.31c-35.86-32.94-72.9-64.27-111.12-93.99l-0.45-0.35H186.09v174.46h384.18L567.57,395.73z
	 M189.39,395.23V227.38h186.35c36.85,28.67,72.71,58.94,107.56,90.81c6.05,5.53,12.06,11.11,18.03,16.73
	c20.87,19.61,41.25,39.72,61.14,60.31H189.39z"/>
<path fill="#6C63FF" d="M369.34,217.65c0,41.88-75.83,135.18-75.83,135.18s-75.83-93.3-75.83-135.18
	c0.03-41.88,34-75.81,75.88-75.78C335.4,141.89,369.31,175.8,369.34,217.65L369.34,217.65z"/>
<path fill="#FFFFFF" d="M328.17,214.35c0,19.15-15.52,34.67-34.67,34.67s-34.67-15.52-34.67-34.67s15.52-34.67,34.67-34.67l0,0
	c19.14-0.01,34.66,15.5,34.67,34.63C328.17,214.33,328.17,214.34,328.17,214.35z"/>
<circle fill="#6C63FF" cx="293.5" cy="387.11" r="20.44"/>
<circle fill="#FF6584" cx="489.36" cy="100.27" r="30.22"/>
<path fill="#FFFFFF" d="M584.14,193.41H435.87c-0.19,0-0.37-0.01-0.55-0.04L505.44,71.9c1.34-2.36,4.33-3.19,6.69-1.86
	c0.78,0.44,1.42,1.08,1.86,1.86l47.06,81.51l2.25,3.9L584.14,193.41z"/>
<polygon opacity="0.2" enable-background="new    " points="584.14,193.41 533.52,193.41 558.37,157.31 560.16,154.71 
	561.05,153.41 563.31,157.31 "/>
<path fill="#FFFFFF" d="M666.69,193.41H538.46l24.85-36.1l1.79-2.6l32.38-47.04c2.12-3.08,7.23-3.27,9.73-0.58
	c0.17,0.18,0.32,0.38,0.47,0.58L666.69,193.41z"/>
<circle fill="#FFFFFF" cx="676.21" cy="349.33" r="15.3"/>
<polygon fill="#CBCBCB" points="677.68,395.41 674.55,395.41 675.98,347.03 "/>
<polygon fill="#CBCBCB" points="676.26,356.2 679.62,351.55 676.21,357.35 675.84,356.71 "/>
<polygon fill="#CBCBCB" points="675.89,360.9 672.52,356.25 675.93,362.05 676.3,361.41 "/>
<circle fill="#FFFFFF" cx="632.72" cy="327.36" r="22.59"/>
<polygon fill="#CBCBCB" points="634.89,395.41 630.27,395.41 632.38,323.96 "/>
<polygon fill="#CBCBCB" points="632.78,337.5 637.75,330.63 632.72,339.2 632.17,338.25 "/>
<polygon fill="#CBCBCB" points="632.24,344.44 627.27,337.57 632.31,346.14 632.85,345.19 "/>
<circle fill="#FFFFFF" cx="108.21" cy="349.33" r="15.3"/>
<polygon fill="#CBCBCB" points="109.68,395.41 106.55,395.41 107.98,347.03 "/>
<polygon fill="#CBCBCB" points="108.26,356.2 111.62,351.55 108.21,357.35 107.84,356.71 "/>
<polygon fill="#CBCBCB" points="107.89,360.9 104.52,356.25 107.93,362.05 108.3,361.41 "/>
<circle fill="#FFFFFF" cx="64.72" cy="327.36" r="22.59"/>
<polygon fill="#CBCBCB" points="66.89,395.41 62.27,395.41 64.38,323.96 "/>
<polygon fill="#CBCBCB" points="64.78,337.5 69.75,330.63 64.72,339.2 64.17,338.25 "/>
<polygon fill="#CBCBCB" points="64.24,344.44 59.27,337.57 64.31,346.14 64.85,345.19 "/>
</svg>
