<?xml version="1.0" encoding="utf-8"?>
<!-- Generator: Adobe Illustrator 23.1.0, SVG Export Plug-In . SVG Version: 6.00 Build 0)  -->
<svg version="1.1" id="Layer_1" xmlns="http://www.w3.org/2000/svg" xmlns:xlink="http://www.w3.org/1999/xlink" x="0px" y="0px"
	 viewBox="0 0 284.38 261.6" enable-background="new 0 0 284.38 261.6" xml:space="preserve">
<linearGradient id="SVGID_1_" gradientUnits="userSpaceOnUse" x1="15.6782" y1="135.6161" x2="286.686" y2="135.6161" gradientTransform="matrix(1 0 0 -1 0 262)">
	<stop  offset="0" style="stop-color:#514F97"/>
	<stop  offset="0.1769" style="stop-color:#624590"/>
	<stop  offset="0.5248" style="stop-color:#8D2C7C"/>
	<stop  offset="0.5961" style="stop-color:#972678"/>
</linearGradient>
<path fill="url(#SVGID_1_)" d="M216.44,32.24c-0.88,3.64-1.78,7.45-2.64,10.97c-6.65,27.34-13.16,54.72-20.01,82.02
	c-3.39,13.5-10.11,25.11-21.57,33.52c-8.47,6.22-18.05,9.32-28.44,10.41c-8.89,0.92-17.66,0.54-26.27-1.82
	c-14.82-4.07-23.58-17.7-20.71-32.81c2.53-13.38,5.57-26.67,8.59-39.94c2.83-12.42,5.92-24.77,8.9-37.15
	c0.35-1.44,0.78-2.87,1.16-4.3c0.29-1.1,0.87-2.22,0.42-2.63c-0.47-0.44-1.58-0.29-2.75-0.25c-2.53,0.07-8.86,0.2-11.7,0.1
	l4.42-17.45l0.57-0.67c0.4,0,36.72,0.58,37.41,0.79c-0.9,4.05-1.74,8.03-2.69,11.99c-3.31,13.75-6.7,27.49-10,41.24
	c-3.02,12.57-6.14,25.11-8.86,37.74c-0.79,3.68-0.73,7.66-0.38,11.45c0.5,5.57,4.07,9.07,9.32,10.48c7.7,2.08,15.4,1.84,22.88-1.19
	c8.88-3.6,13.11-11.13,15.61-19.64c3.1-10.55,5.55-21.31,8.2-31.99c3.19-12.9,6.3-25.81,9.43-38.72c0.27-1.09,0.42-2.2,0.73-3.9
	c-4.76,0-9.1,0-13.85,0c0.76-3.61,1.4-6.82,2.13-10c0.51-2.21,1.8-8.13,2.38-8.14C190.93,32.2,215.66,32.23,216.44,32.24z
	 M100.05,84.8c0.42-0.01,1.1-0.42,1.2-0.76c0.73-2.81,1.35-5.64,2.08-8.73c-6.57,0-12.59-0.03-18.61,0.05
	c-0.61,0.01-1.6,0.57-1.75,1.08c-0.79,2.64-1.37,5.33-2.11,8.41C87.53,84.83,93.79,84.85,100.05,84.8z M75.2,113.05
	c-0.5,0.01-1.31,0.61-1.45,1.1c-0.74,2.57-1.32,5.19-2.05,8.17c6.67,0,12.93,0.02,19.2-0.05c0.44-0.01,1.15-0.57,1.28-1
	c0.73-2.64,1.33-5.32,2.05-8.27C87.58,113,81.39,112.98,75.2,113.05z M70.52,131.97c-0.4,0.01-1.07,0.4-1.16,0.74
	c-0.79,2.71-1.47,5.47-2.29,8.66c6.7,0,12.87,0.05,19.03-0.07c0.06,0,1.14,0.35,1.66-1.56c0.67-2.51,1.31-5.03,2-7.8
	C83.2,131.94,76.86,131.93,70.52,131.97z M104.33,66.08c0.54-0.01,1.43-0.55,1.56-1.01c0.75-2.64,1.32-5.32,2.01-8.21
	c-1.21-0.1-1.97-0.22-2.74-0.22c-5.41-0.01-10.83-0.01-16.24,0.06c-0.5,0.01-1.29,0.47-1.4,0.88c-0.74,2.66-1.35,5.35-1.99,8.01
	c0.54,0.25,0.76,0.46,0.99,0.46C92.45,66.08,98.39,66.13,104.33,66.08z M96.71,102.54c0.73-2.64,1.33-5.32,2.05-8.27
	c-6.64,0-12.84-0.03-19.03,0.05c-0.5,0.01-1.31,0.61-1.45,1.1c-0.74,2.57-1.32,5.19-2.05,8.17c6.67,0,12.93,0.02,19.2-0.05
	C95.88,103.53,96.59,102.96,96.71,102.54z M55.46,195.38c-1.26,5.73-2.34,11.49-3.54,17.23c-0.57,0.02-0.47,0.01-1.05,0.03
	c-1.64-6.09-3.46-12.13-4.9-18.27c-0.91-3.89-3.6-2.76-6.05-2.71c-2.28,0.04-3.46,0.52-3.91,2.93c-0.95,5.08-2.23,10.12-3.3,15.18
	c-0.66,3.15-1.19,6.32-1.76,9.42c3.86,1.37,5.21,0.03,5.82-3.33c1.15-6.28,2.7-12.49,4.09-18.73c0.22,0.01,0.45,0.01,0.67,0.02
	c0.37,1.18,0.81,2.34,1.12,3.52c1.44,5.5,2.93,10.99,4.21,16.54c0.48,2.06,1.6,2.52,3.48,2.46c1.9-0.06,4.73,1.4,5.46-1.73
	c1.98-8.56,3.7-17.17,5.5-25.7c-2.98-0.04-3.26-0.06-4.87-0.03C55.78,192.24,55.77,193.95,55.46,195.38z M156.96,195.27
	c-0.96,5.74-2.38,11.41-3.62,17.1c-0.67,0.02-0.56,0.01-1.23,0.03c-1.61-6.06-3.3-12.08-4.79-18.17c-0.57-2.31-0.34-2.85-2.23-2.95
	c-1.75-0.09-5.2,0.15-6.6,0.27c-0.25,0.02-0.37,0.24-0.42,0.38c-2.26,8.48-4.02,18.71-5.9,27.26c3.89,1.4,5.39,0.13,6.02-3.45
	c1.09-6.1,2.63-12.11,3.97-18.16c1.31,1.21,1.81,2.45,2.14,3.73c1.32,5.13,2.51,10.3,3.95,15.4c0.32,1.12,1.3,2.65,2.26,2.89
	c4.82,1.24,6.34,0.11,7.39-4.82c0.34-1.6,0.75-3.19,1.07-4.8c1.2-5.87,2.38-11.75,3.58-17.64
	C159.02,191.05,157.52,191.85,156.96,195.27z M181.07,191.94c-2.89-0.14-5.82,0.11-8.71-0.13c-2.18-0.18-4.05,1.51-4.35,3.67
	c-0.13,0.91-0.4,1.79-0.58,2.69c-1.42,6.99-2.84,13.98-4.38,21.55c3.17,0,5.79-0.13,8.4,0.02c12.15,0.68,17.81-8.32,18.7-17.58
	C190.73,196.29,187.03,192.24,181.07,191.94z M180.72,212.21c-2.68,3.43-6.31,3.77-11.23,2.76c1.38-6.16,2.57-12.07,4.17-17.88
	c0.21-0.8,2.38-1.52,3.64-1.5c2.71,0.05,5.58,0.76,6.37,3.79C184.9,204.06,183.69,208.42,180.72,212.21z M23.96,193.89
	c-1.07,5.06-2.19,12.22-3.6,17.2c-1.16,4.09-5.9,6.26-9.85,4.83c-3.93-1.42-3.15-4.56-2.5-7.65c1.12-5.29,2.1-10.61,3.2-16.19H5.75
	c-1.31,6.58-2.73,13.12-3.9,19.7c-0.57,3.2,0.92,5.69,3.78,7.22c6.55,3.49,17.08,0.37,19.54-6.52c2.31-6.46,3.33-13.54,4.91-20.21
	c-2.82-0.34-4.45-0.62-5.29-0.64C24.33,191.61,24.31,192.23,23.96,193.89z M281.09,194.92c-0.17-1.12-1.27-2.98-1.93-2.98
	c-2.09,0-5.31,0.03-6.11,1.29c-5.29,8.41-10.05,17.14-15.14,26.04c3.66,1.16,5.71,0.05,6.8-2.94c0.99-2.73,3.07-3.56,6.06-3.08
	c1.05,0.17,2.13,0.17,3.17,0.02c2.63-0.35,4.53,0.19,4.54,2.83c0.02,4.02,2.35,3.99,5.9,3.14
	C283.3,211.08,282.29,202.99,281.09,194.92z M275.25,209.37c-1.85,0.17-3.72,0.05-6.67,0.05c2.53-4.5,4.54-8.05,6.54-11.6
	c0.56,0.12,0.53,0.11,1.09,0.22c0.36,3.38,0.78,6.74,0.98,10.12C277.22,208.54,275.96,209.29,275.25,209.37z M104.88,191.78
	c-0.82,0.02-2.15,1.05-2.33,1.82c-1.97,8.45-3.75,16.94-5.73,26.13c5.81,0,10.85-0.15,15.88,0.05c3.07,0.13,4.08-1.18,3.78-4.63
	h-12.51c0.2-7.81,0.4-8.01,7.1-8.04c2.01-0.01,4.01,0,6.33,0l0.3-4.37h-11.22c0.73-7.21,0.73-7.21,7.36-7.21
	c1.39,0,2.79-0.09,4.17,0.01c2.68,0.19,3.25-1.16,2.71-3.86C115.44,191.7,110.16,191.61,104.88,191.78z M221.92,191.86
	c-0.95,0.05-2.34,1.73-2.63,2.88c-1.34,5.37-2.37,10.83-3.49,16.26c-0.57,2.76-1.08,5.52-1.7,8.72c5.75,0,10.79-0.15,15.81,0.05
	c2.96,0.12,3.77-1.22,3.6-4.32h-12.53c1.7-7.7,0.45-8.41,7.32-8.41c1.14,0,2.28-0.05,3.41,0c2.89,0.13,3.42-1.26,2.45-4.26h-10.72
	c0.92-7.34,0.92-7.34,7.35-7.34c1.39,0,2.79-0.09,4.17,0.01c2.53,0.18,3.39-0.95,2.87-3.75
	C232.49,191.72,227.19,191.57,221.92,191.86z M98.37,191.69c-6.74,0-15.1-0.28-21.77-0.03c-1.06,0.04-1.64,3.59-1.39,3.99
	c2.46,0,5.69,0.02,8.59,0.02c-1.62,8.12-3.14,15.73-4.71,23.57c4.1,1.32,5.82,0.14,6.36-3.83c0.33-2.48,0.74-4.93,1.39-7.35
	c3.27-12.24,1.13-12.44,8.57-12.47C98.19,195.6,98.91,194.49,98.37,191.69z M198.4,215.29c1.58-8.08,3.01-15.41,4.46-22.84
	c-3.67-1.25-5.42-0.33-5.99,2.3c-0.25,1.12-0.76,4.26-1,5.38c-1.41,6.41-2.83,12.82-4.34,19.6c5.39,0,10.18-0.12,14.97,0.04
	c2.91,0.1,3.81-1.2,3.5-4.48h-11.6V215.29z M244.53,215.28l4.87-22.94c-6.11-0.9-5.3-0.78-6.87,5.47c-0.17,0.69-0.34,1.39-0.48,2.09
	c-1.27,6.38-2.52,12.74-3.92,19.84c5.58,0,10.22-0.09,14.86,0.03c2.95,0.07,3.75-1.29,3.25-4.49H244.53z M66.7,193.72
	c-1.87,8.45-3.99,17.87-5.77,26.34c0.33,0.37,5.48,0.98,5.55-0.29c2.1-8.5,4.21-18.9,6.14-28.21C70.2,192.26,67.5,190.1,66.7,193.72
	z"/>
</svg>
