<?xml version="1.0" encoding="utf-8"?>
<!-- Generator: Adobe Illustrator 23.1.0, SVG Export Plug-In . SVG Version: 6.00 Build 0)  -->
<svg version="1.1" id="Layer_1" xmlns="http://www.w3.org/2000/svg" xmlns:xlink="http://www.w3.org/1999/xlink" x="0px" y="0px"
	 viewBox="0 0 284.38 261.6" enable-background="new 0 0 284.38 261.6" xml:space="preserve">
<linearGradient id="SVGID_1_" gradientUnits="userSpaceOnUse" x1="18.7854" y1="128.6392" x2="281.2332" y2="128.6392">
	<stop  offset="0" style="stop-color:#514F97"/>
	<stop  offset="0.1769" style="stop-color:#624590"/>
	<stop  offset="0.5248" style="stop-color:#8D2C7C"/>
	<stop  offset="0.5961" style="stop-color:#972678"/>
</linearGradient>
<path fill="url(#SVGID_1_)" d="M279,2.76c-1.61,6.66-3.27,13.64-4.84,20.1c-12.19,50.11-24.12,100.29-36.67,150.31
	c-6.21,24.74-18.53,46.01-39.53,61.44c-15.52,11.4-33.07,17.09-52.11,19.08c-16.29,1.7-32.36,0.99-48.13-3.33
	c-27.16-7.45-43.22-32.42-37.96-60.13c4.65-24.52,10.21-48.87,15.75-73.2c5.18-22.76,10.85-45.4,16.32-68.09
	c0.64-2.64,1.43-5.25,2.13-7.87c0.53-2,1.58-4.07,0.77-4.82c-0.86-0.8-2.9-0.52-5.05-0.46c-4.65,0.13-16.23,0.36-21.43,0.19
	l8.09-31.97l1.04-1.23c0.74,0,67.3,1.06,68.56,1.45c-1.66,7.42-3.19,14.72-4.93,21.97c-6.07,25.2-12.27,50.37-18.33,75.58
	c-5.54,23.03-11.25,46.02-16.23,69.17c-1.45,6.74-1.34,14.04-0.7,20.97c0.93,10.21,7.46,16.61,17.09,19.2
	c14.12,3.8,28.23,3.36,41.92-2.19c16.26-6.59,24.03-20.41,28.6-35.98c5.68-19.34,10.17-39.04,15.02-58.62
	c5.85-23.63,11.54-47.3,17.27-70.96c0.48-1.99,0.77-4.03,1.35-7.13c-8.72,0-16.67,0-25.38,0c1.4-6.62,2.56-12.49,3.91-18.33
	c0.94-4.05,3.29-14.91,4.36-14.93C232.25,2.69,277.57,2.73,279,2.76z M65.71,99.07c0.76-0.01,2.03-0.76,2.2-1.4
	c1.35-5.14,2.48-10.34,3.8-16.01c-12.05,0-23.08-0.06-34.1,0.09c-1.12,0.01-2.94,1.04-3.22,1.97c-1.45,4.83-2.51,9.78-3.87,15.41
	C42.76,99.13,54.23,99.16,65.71,99.07z M20.17,150.85c-0.92,0.01-2.4,1.12-2.65,2c-1.36,4.71-2.42,9.52-3.75,14.98
	c12.21,0,23.7,0.04,35.19-0.08c0.81-0.01,2.11-1.04,2.33-1.83c1.35-4.84,2.45-9.76,3.75-15.15
	C42.87,150.76,31.52,150.72,20.17,150.85z M11.59,185.52c-0.74,0.01-1.95,0.74-2.13,1.36c-1.44,4.98-2.68,10.02-4.19,15.86
	c12.27,0,23.58,0.08,34.88-0.13c0.1,0,2.09,0.65,3.03-2.86c1.23-4.6,2.41-9.21,3.67-14.3C34.84,185.46,23.21,185.43,11.59,185.52z
	 M73.54,64.77c0.99-0.01,2.62-1.01,2.86-1.85c1.38-4.83,2.43-9.75,3.68-15.04c-2.21-0.18-3.61-0.4-5.02-0.4
	c-9.92-0.01-19.84-0.02-29.75,0.11c-0.9,0.01-2.36,0.86-2.57,1.6c-1.37,4.87-2.47,9.81-3.65,14.67c0.99,0.46,1.4,0.83,1.82,0.83
	C51.79,64.76,62.67,64.85,73.54,64.77z M59.59,131.57c1.35-4.84,2.45-9.76,3.75-15.15c-12.17,0-23.52-0.05-34.87,0.09
	c-0.92,0.01-2.4,1.12-2.65,2c-1.36,4.71-2.42,9.52-3.75,14.98c12.21,0,23.7,0.04,35.19-0.08C58.07,133.39,59.37,132.36,59.59,131.57
	z"/>
</svg>
