<?xml version="1.0" encoding="utf-8"?>
<!-- Generator: Adobe Illustrator 23.1.0, SVG Export Plug-In . SVG Version: 6.00 Build 0)  -->
<svg version="1.1" id="Layer_1" xmlns="http://www.w3.org/2000/svg" xmlns:xlink="http://www.w3.org/1999/xlink" x="0px" y="0px"
	 viewBox="0 0 1372.68 1237.39" enable-background="new 0 0 1372.68 1237.39" xml:space="preserve">
<path fill="#FDFDFD" d="M1431.28,1311.98c-457.56,0-915.12,0-1372.68,0"/>
<g>
	<path fill="#F60E71" d="M277.74,999.12c-5.8,26.39-10.78,52.92-16.3,79.35c-2.63,0.09-2.16,0.05-4.84,0.14
		c-7.55-28.05-15.93-55.86-22.57-84.14c-4.19-17.91-16.58-12.71-27.86-12.48c-10.5,0.18-15.93,2.39-18.01,13.49
		c-4.38,23.4-10.27,46.61-15.2,69.91c-3.04,14.51-5.48,29.11-8.11,43.38c17.78,6.31,23.99,0.14,26.8-15.34
		c5.3-28.92,12.43-57.52,18.84-86.26c1.01,0.05,2.07,0.05,3.09,0.09c1.7,5.43,3.73,10.78,5.16,16.21
		c6.63,25.33,13.49,50.61,19.39,76.17c2.21,9.49,7.37,11.61,16.03,11.33c8.75-0.28,21.78,6.45,25.15-7.97
		c9.12-39.42,17.04-79.07,25.33-118.36c-13.72-0.18-15.01-0.28-22.43-0.14C279.21,984.66,279.17,992.54,277.74,999.12z"/>
	<path fill="#760CA0" d="M745.18,998.62c-4.42,26.43-10.96,52.55-16.67,78.75c-3.09,0.09-2.58,0.05-5.66,0.14
		c-7.41-27.91-15.2-55.63-22.06-83.68c-2.63-10.64-1.57-13.13-10.27-13.59c-8.06-0.41-23.95,0.69-30.4,1.24
		c-1.15,0.09-1.7,1.11-1.93,1.75c-10.41,39.05-18.51,86.17-27.17,125.54c17.91,6.45,24.82,0.6,27.72-15.89
		c5.02-28.09,12.11-55.77,18.28-83.63c6.03,5.57,8.34,11.28,9.86,17.18c6.08,23.63,11.56,47.44,18.19,70.92
		c1.47,5.16,5.99,12.2,10.41,13.31c22.2,5.71,29.2,0.51,34.03-22.2c1.57-7.37,3.45-14.69,4.93-22.11
		c5.53-27.03,10.96-54.11,16.49-81.24C754.67,979.18,747.76,982.87,745.18,998.62z"/>
	<path fill="#760CA0" d="M856.22,983.28c-13.31-0.64-26.8,0.51-40.11-0.6c-10.04-0.83-18.65,6.95-20.03,16.9
		c-0.6,4.19-1.84,8.24-2.67,12.39c-6.54,32.19-13.08,64.38-20.17,99.25c14.6,0,26.67-0.6,38.69,0.09
		c55.96,3.13,82.02-38.32,86.12-80.96C900.71,1003.31,883.67,984.66,856.22,983.28z M854.61,1076.63
		c-12.34,15.8-29.06,17.36-51.72,12.71c6.36-28.37,11.84-55.59,19.2-82.34c0.97-3.68,10.96-7,16.76-6.91
		c12.48,0.23,25.7,3.5,29.34,17.45C873.86,1039.1,868.28,1059.18,854.61,1076.63z"/>
	<path fill="#F60E71" d="M132.67,992.26c-4.93,23.3-10.09,56.28-16.58,79.21c-5.34,18.84-27.17,28.83-45.36,22.24
		c-18.1-6.54-14.51-21-11.51-35.23c5.16-24.36,9.67-48.86,14.74-74.56H48.8c-6.03,30.3-12.57,60.42-17.96,90.73
		c-2.63,14.74,4.24,26.2,17.41,33.25c30.17,16.07,78.66,1.7,89.99-30.03c10.64-29.75,15.34-62.36,22.61-93.07
		c-12.99-1.57-20.49-2.86-24.36-2.95C134.37,981.76,134.28,984.62,132.67,992.26z"/>
	<path fill="#760CA0" d="M1316.85,997.01c-0.78-5.16-5.85-13.72-8.89-13.72c-9.63,0-24.45,0.14-28.14,5.94
		c-24.36,38.73-46.28,78.94-69.73,119.92c16.86,5.34,26.3,0.23,31.32-13.54c4.56-12.57,14.14-16.4,27.91-14.18
		c4.84,0.78,9.81,0.78,14.6,0.09c12.11-1.61,20.86,0.88,20.91,13.03c0.09,18.51,10.82,18.38,27.17,14.46
		C1327.03,1071.43,1322.37,1034.17,1316.85,997.01z M1289.95,1063.55c-8.52,0.78-17.13,0.23-30.72,0.23
		c11.65-20.72,20.91-37.07,30.12-53.42c2.58,0.55,2.44,0.51,5.02,1.01c1.66,15.57,3.59,31.04,4.51,46.61
		C1299.03,1059.73,1293.22,1063.18,1289.95,1063.55z"/>
	<path fill="#F60E71" d="M505.34,982.54c-3.78,0.09-9.9,4.84-10.73,8.38c-9.07,38.92-17.27,78.02-26.39,120.34
		c26.76,0,49.97-0.69,73.13,0.23c14.14,0.6,18.79-5.43,17.41-21.32h-57.61c0.92-35.97,1.84-36.89,32.7-37.03
		c9.26-0.05,18.47,0,29.15,0l1.38-20.13H512.7c3.36-33.2,3.36-33.2,33.9-33.2c6.4,0,12.85-0.41,19.2,0.05
		c12.34,0.88,14.97-5.34,12.48-17.78C553.97,982.18,529.65,981.76,505.34,982.54z"/>
	<path fill="#760CA0" d="M1044.35,982.91c-4.38,0.23-10.78,7.97-12.11,13.26c-6.17,24.73-10.91,49.88-16.07,74.88
		c-2.63,12.71-4.97,25.42-7.83,40.16c26.48,0,49.69-0.69,72.81,0.23c13.63,0.55,17.36-5.62,16.58-19.9h-57.71
		c7.83-35.46,2.07-38.73,33.71-38.73c5.25,0,10.5-0.23,15.7,0c13.31,0.6,15.75-5.8,11.28-19.62h-49.37
		c4.24-33.8,4.24-33.8,33.85-33.8c6.4,0,12.85-0.41,19.2,0.05c11.65,0.83,15.61-4.38,13.22-17.27
		C1093.03,982.27,1068.62,981.58,1044.35,982.91z"/>
	<path fill="#F60E71" d="M475.35,982.13c-31.04,0-69.54-1.29-100.26-0.14c-4.88,0.18-7.55,16.53-6.4,18.38
		c11.33,0,26.2,0.09,39.56,0.09c-7.46,37.4-14.46,72.44-21.69,108.55c18.88,6.08,26.8,0.64,29.29-17.64
		c1.52-11.42,3.41-22.7,6.4-33.85c15.06-56.37,5.2-57.29,39.47-57.43C474.53,1000.14,477.84,995.03,475.35,982.13z"/>
	<path fill="#760CA0" d="M936.03,1090.82c7.28-37.21,13.86-70.97,20.54-105.19c-16.9-5.76-24.96-1.52-27.59,10.59
		c-1.15,5.16-3.5,19.62-4.61,24.78c-6.49,29.52-13.03,59.04-19.99,90.27c24.82,0,46.88-0.55,68.94,0.18
		c13.4,0.46,17.55-5.53,16.12-20.63H936.03L936.03,1090.82z"/>
	<path fill="#760CA0" d="M1148.48,1090.77l22.43-105.65c-28.14-4.14-24.41-3.59-31.64,25.19c-0.78,3.18-1.57,6.4-2.21,9.63
		c-5.85,29.38-11.61,58.67-18.05,91.37c25.7,0,47.07-0.41,68.44,0.14c13.59,0.32,17.27-5.94,14.97-20.68L1148.48,1090.77
		L1148.48,1090.77z"/>
	<path fill="#F60E71" d="M329.5,991.48c-8.61,38.92-18.38,82.3-26.57,121.31c1.52,1.7,25.24,4.51,25.56-1.34
		c9.67-39.15,19.39-87.04,28.28-129.92C345.62,984.76,333.19,974.81,329.5,991.48z"/>
	<g>
		<linearGradient id="SVGID_1_" gradientUnits="userSpaceOnUse" x1="252.77" y1="727.7169" x2="384.3544" y2="727.7169">
			<stop  offset="0" style="stop-color:#FFFFFF"/>
			<stop  offset="0" style="stop-color:#F60E71"/>
			<stop  offset="1" style="stop-color:#B0119A"/>
		</linearGradient>
		<path fill="url(#SVGID_1_)" d="M272.78,700.52c-2.32,0.06-6.21,2.32-6.73,4.29c-4.58,15.72-8.52,31.72-13.28,50.22
			c38.85,0,74.64,0.29,110.36-0.41c0.35,0,6.61,2.03,9.63-9.05c3.89-14.56,7.6-29.17,11.6-45.23
			C346.31,700.35,309.54,700.29,272.78,700.52z"/>
		<path fill="#F60E71" d="M450.99,422.56c4.23-16.3,7.83-32.71,12.06-50.63c-38.1,0-73.01-0.17-107.92,0.29
			c-3.54,0.06-9.28,3.31-10.15,6.26c-4.58,15.31-7.94,30.91-12.24,48.77c38.68-0.12,74.98,0,111.29-0.29
			C446.46,426.91,450.41,424.54,450.99,422.56z"/>
		<path fill="#F60E71" d="M468.85,318.41c3.13-0.06,8.29-3.19,9.05-5.86c4.35-15.31,7.65-30.85,11.66-47.61
			c-7.02-0.58-11.42-1.28-15.89-1.28c-31.37-0.06-62.81-0.06-94.18,0.35c-2.9,0.06-7.48,2.73-8.12,5.1
			c-4.29,15.43-7.83,31.03-11.54,46.45c3.13,1.45,4.41,2.67,5.74,2.67C399.95,318.41,434.4,318.7,468.85,318.41z"/>
		<linearGradient id="SVGID_2_" gradientUnits="userSpaceOnUse" x1="494.6039" y1="242.1324" x2="1029.2203" y2="689.282">
			<stop  offset="0" style="stop-color:#0485CE"/>
			<stop  offset="0.3184" style="stop-color:#2C5ABE"/>
			<stop  offset="0.7781" style="stop-color:#6122A8"/>
			<stop  offset="1" style="stop-color:#760CA0"/>
		</linearGradient>
		<path fill="url(#SVGID_2_)" d="M900.25,122.8c-3.36,0.06-10.84,34.39-13.8,47.21c-4.23,18.44-7.95,37.06-12.35,57.99
			c27.55,0,52.72,0,80.32,0c-1.8,9.86-2.67,16.3-4.23,22.62C932.03,325.48,914,400.35,895.5,475.16
			c-15.37,61.94-29.58,124.34-47.55,185.52c-14.5,49.35-39.03,93.02-90.53,113.9c-43.38,17.57-88.03,18.96-132.69,6.9
			c-30.45-8.18-51.15-28.47-54.05-60.78c-2.03-21.98-2.38-45.06,2.2-66.4c15.77-73.24,33.87-145.97,51.38-218.86
			c19.14-79.74,38.8-159.42,57.99-239.16c5.51-22.96,10.38-46.05,15.6-69.53c-4-1.22-214.63-4.58-216.95-4.58l-3.31,3.89
			l-25.63,101.2c16.47,0.58,53.18-0.17,67.85-0.58c6.79-0.23,13.22-1.1,15.95,1.45c2.61,2.38-0.75,8.87-2.44,15.25
			c-2.2,8.29-4.7,16.59-6.73,24.94c-17.28,71.79-35.2,143.41-51.61,215.44c-17.51,76.96-35.14,154.03-49.82,231.62
			c-16.64,87.63,34.16,166.67,120.1,190.27c49.93,13.69,100.79,15.89,152.35,10.55c60.25-6.32,115.81-24.3,164.93-60.37
			c66.46-48.77,105.43-116.1,125.09-194.39c39.72-158.32,77.48-317.1,116.04-475.65c4.99-20.41,10.21-42.51,15.31-63.62
			C1114.48,122.11,971.06,121.93,900.25,122.8z"/>
		<linearGradient id="SVGID_3_" gradientUnits="userSpaceOnUse" x1="305.8909" y1="508.9061" x2="436.5474" y2="508.9061">
			<stop  offset="0" style="stop-color:#F60E71"/>
			<stop  offset="1" style="stop-color:#BA1194"/>
		</linearGradient>
		<path fill="url(#SVGID_3_)" d="M424.66,529.85c4.23-15.31,7.71-30.85,11.89-47.96c-38.51,0-74.46-0.17-110.36,0.29
			c-2.9,0.06-7.6,3.54-8.41,6.38c-4.29,14.9-7.65,30.1-11.89,47.38c38.68,0,74.98,0.12,111.35-0.29
			C419.85,535.59,423.96,532.29,424.66,529.85z"/>
		<linearGradient id="SVGID_4_" gradientUnits="userSpaceOnUse" x1="279.6204" y1="617.5338" x2="373.605" y2="617.5338">
			<stop  offset="0" style="stop-color:#F60E71"/>
			<stop  offset="1" style="stop-color:#BA1194"/>
		</linearGradient>
		<path fill="url(#SVGID_4_)" d="M299.92,590.8c-2.9,0.06-7.6,3.54-8.41,6.38c-4.29,14.9-7.65,30.1-11.89,47.38
			c38.68,0,74.98,0.12,111.35-0.29c2.55-0.06,6.67-3.31,7.42-5.8c4.23-15.31,7.71-30.85,11.89-47.96
			C371.71,590.51,335.81,590.39,299.92,590.8z"/>
	</g>
</g>
</svg>
