<?xml version="1.0" encoding="utf-8"?>
<!-- Generator: Adobe Illustrator 23.1.0, SVG Export Plug-In . SVG Version: 6.00 Build 0)  -->
<svg version="1.1" id="Capa_1" xmlns="http://www.w3.org/2000/svg" xmlns:xlink="http://www.w3.org/1999/xlink" x="0px" y="0px"
	 viewBox="0 0 490.77 490.77" enable-background="new 0 0 490.77 490.77" xml:space="preserve">
<path d="M397.65,233c0,5.8-4.7,10.5-10.5,10.5h-261.8c-5.7,0-10.4-4.7-10.4-10.5c0-5.8,4.7-10.5,10.5-10.5h261.7
	C392.95,222.5,397.65,227.2,397.65,233z M397.65,271c0-5.8-4.7-10.5-10.5-10.5h-261.7c-5.8,0-10.5,4.7-10.5,10.5
	c0,5.8,4.7,10.5,10.4,10.5h261.8C392.95,281.5,397.65,276.8,397.65,271z M348.25,310.3c4.1,2.5,7.8,5.6,10.9,9.3
	c0.6-0.5,1.2-0.9,1.9-1.3l7-3.8c10.3-5.7,32-13.3,43.3-18.3c-7.1-4.6-14.6-4.8-22.4-1.7C379.25,298.3,357.85,305.2,348.25,310.3z
	 M367.35,334c1,3,1.8,6.1,2.1,9.4c0.3,2.6,0.3,5.2,0.1,7.7c1.4-1,2.9-2,4.3-3c14.1-9.9,43-25.6,59.4-33.8c4.9-2.4,10.1-4.9,15.7-6.9
	c-7.1-4.8-14.8-5-22.6-1.9c-15.6,6.1-44.2,19.9-58.8,27.9C367.55,333.6,367.45,333.8,367.35,334z M202.35,118.3
	c0-29.6,24-53.7,53.7-53.7s53.7,24.1,53.7,53.7c0,29.6-24,53.7-53.7,53.7C226.45,172,202.35,147.9,202.35,118.3z M258.55,135.1
	c-2.1,1-4.3,1.2-6.6,0.9c-3.5-0.4-6.9-1.3-10.1-3c-1.8-1-2.4-0.7-3,1.3c-0.5,1.8-1,3.5-1.5,5.3c-0.7,2.3-0.5,2.9,1.8,4
	c2.9,1.4,6,2.1,9.1,2.6c2.5,0.4,2.6,0.5,2.6,3.1c0,1.2,0,2.3,0,3.5c0,1.4,0.7,2.3,2.2,2.3c1.7,0,3.4,0,5.1,0c1.4,0,2.1-0.8,2.1-2.2
	c0-1.6,0.1-3.2,0-4.8c0-1.7,0.6-2.5,2.2-2.9c3.6-0.9,6.7-2.9,9-5.7c6.5-7.9,4.1-19.4-5.3-24.6c-2.9-1.6-6-2.8-9-4.1
	c-1.7-0.8-3.4-1.6-4.9-2.8c-2.9-2.3-2.3-6.1,1.1-7.6c0.9-0.4,2-0.5,3-0.6c4-0.2,7.8,0.6,11.4,2.3c1.8,0.8,2.4,0.6,3-1.3
	c0.7-2,1.2-4,1.8-6c0.4-1.4-0.1-2.2-1.4-2.8c-2.3-1-4.7-1.7-7.2-2.1c-3.3-0.5-3.3-0.5-3.3-3.8c0-4.6,0-4.6-4.6-4.6c-0.7,0-1.3,0-2,0
	c-2.2,0.1-2.5,0.4-2.6,2.6c0,0.9,0,1.9,0,2.9c0,2.9,0,2.9-2.8,3.9c-6.7,2.4-10.9,7-11.3,14.3c-0.4,6.5,3,10.8,8.3,14
	c3.2,1.9,6.8,3.1,10.3,4.6c1.4,0.6,2.7,1.3,3.8,2.2C263.15,128.8,262.45,133.4,258.55,135.1z M114.55,181.4V55.2
	c0-13.5,11-24.5,24.5-24.5h234c13.5,0,24.5,11,24.5,24.5v126.2c0,13.5-11,24.5-24.5,24.5h-234
	C125.55,205.9,114.55,194.9,114.55,181.4z M135.45,156c1.5-0.3,2.9-0.4,4.4-0.4c13.7,0,24.8,11.1,24.8,24.8c0,1.6-0.1,3.1-0.4,4.6
	h181.7c-0.1-1-0.2-2.1-0.2-3.1c0-13.7,11.1-24.8,24.8-24.8c2.07,0,4.03,0.29,6,0.78V81.7c-1.9,0.5-4,0.8-6.1,0.8
	c-13.7,0-24.8-11.1-24.8-24.8c0-2.1,0.3-4.2,0.8-6.1h-182.2c0.3,1.5,0.4,3,0.4,4.6c0,13.7-11.1,24.8-24.8,24.8c-1.5,0-3-0.1-4.4-0.4
	V156z M490.75,339.8c-0.3,7.6-5.1,14.5-11.9,18.5l-138.5,81l-5.2,2.7c-18,9.4-37.1,11.9-57.5,9.7l-183.2-7.9
	c-3.1,7.4-10.3,12.8-19.1,13.4l-41.7,2.8c-13.9,1-25.9-9.1-26.9-22.5l-6.7-92.6c-0.9-13.4,9.5-25,23.4-25.9l41.7-2.8
	c8.8-0.6,16.7,3.9,20.9,10.8c18.7-8,53.9-25,116.2-6.8c6.3,1.9,16.8,3.5,23.4,3.6l96.7,1.2c12-1.3,23.6,7.9,24.9,20.5
	c1.3,12.6-8.2,23.8-20.2,25.1l-108.7,10.3c-3.6,0.3-6.1,3.5-5.6,6.9c0.4,3.1,3.3,5.4,6.5,5.2l4.3-0.2c0,0,73.1-1.1,123.3-11.8
	c9.1-2,17.3-5.3,25.1-10.3c1.2-0.8,2.8-1.9,4-2.7c17.3-11.9,43.6-26.8,62.5-36.3c5.3-2.7,24.7-13.2,34.1-12.5
	C485.75,320.2,491.05,330.5,490.75,339.8z M63.15,424.4c0-7.6-6.4-13.7-14.2-13.7c-7.8,0-14.2,6.1-14.2,13.7
	c0,7.6,6.4,13.7,14.2,13.7C56.75,438.1,63.15,432,63.15,424.4z M334.25,133.2c8.2,0,14.9-6.7,14.9-14.9s-6.7-14.9-14.9-14.9
	s-14.9,6.7-14.9,14.9S326.05,133.2,334.25,133.2z M177.95,133.2c8.2,0,14.9-6.7,14.9-14.9s-6.7-14.9-14.9-14.9
	c-8.2,0-14.9,6.7-14.9,14.9S169.75,133.2,177.95,133.2z"/>
</svg>
