<?xml version="1.0" encoding="utf-8"?>
<!-- Generator: Adobe Illustrator 23.1.0, SVG Export Plug-In . SVG Version: 6.00 Build 0)  -->
<svg version="1.1" id="Layer_1" xmlns="http://www.w3.org/2000/svg" xmlns:xlink="http://www.w3.org/1999/xlink" x="0px" y="0px"
	 viewBox="0 0 493.46 480.85" enable-background="new 0 0 493.46 480.85" xml:space="preserve">
<path fill="#CCCCCC" d="M314.74,107.79h-26.26v223.85c0,14.77-11.97,26.74-26.74,26.74l0,0H61v0.26c0,14.77,11.97,26.74,26.74,26.74
	l0,0h226.99c14.77,0,26.74-11.97,26.74-26.74l0,0v-224.1C341.48,119.76,329.51,107.79,314.74,107.79z"/>
<path fill="#F2F2F2" d="M439.2,463.52c1.25,0.06,2.31-0.91,2.37-2.16c0.03-0.67-0.24-1.32-0.73-1.77l-0.16-0.62
	c0.02-0.05,0.04-0.1,0.06-0.15c1.31-3.1,4.89-4.55,7.99-3.24c1.47,0.62,2.64,1.8,3.25,3.28c1.84,4.43,4.18,8.86,4.76,13.55
	c0.25,2.07,0.15,4.17-0.32,6.2c4.32-9.42,6.56-19.66,6.58-30.02c0-2.6-0.14-5.2-0.43-7.78c-0.24-2.12-0.57-4.22-0.99-6.31
	c-2.31-11.33-7.28-21.95-14.5-30.99c-3.49-1.91-6.32-4.84-8.09-8.4c-0.64-1.28-1.1-2.65-1.35-4.06c0.39,0.05,1.49-5.95,1.19-6.32
	c0.55-0.83,1.53-1.25,2.13-2.06c2.98-4.04,7.09-3.34,9.24,2.16c4.58,2.31,4.63,6.15,1.81,9.84c-1.79,2.35-2.03,5.52-3.6,8.03
	c0.16,0.21,0.33,0.41,0.49,0.61c2.95,3.8,5.52,7.87,7.68,12.17c-0.52-4.81,0.1-9.68,1.83-14.21c1.75-4.22,5.02-7.77,7.91-11.41
	c2.13-2.74,6.08-3.22,8.81-1.09c1.31,1.02,2.17,2.53,2.37,4.18c0.01,0.05,0.01,0.11,0.02,0.16c-0.43,0.24-0.85,0.5-1.26,0.77
	c-1.41,0.94-1.79,2.86-0.85,4.27c0.48,0.72,1.24,1.2,2.09,1.33l0.06,0.01c-0.15,1.54-0.42,3.08-0.81,4.58
	c3.7,14.32-4.29,19.53-15.7,19.76c-0.25,0.13-0.5,0.26-0.75,0.38c2.17,6.14,3.53,12.54,4.04,19.03c0.29,3.83,0.28,7.68-0.05,11.5
	l0.02-0.14c0.83-4.26,3.1-8.09,6.43-10.87c4.95-4.06,11.93-5.56,17.27-8.82c1.64-1.05,3.83-0.58,4.88,1.06
	c0.45,0.7,0.64,1.54,0.53,2.37l-0.02,0.14c-0.8,0.32-1.57,0.7-2.32,1.12c-0.43,0.24-0.85,0.5-1.26,0.77
	c-1.41,0.94-1.79,2.86-0.85,4.27c0.48,0.72,1.24,1.2,2.09,1.33l0.06,0.01c0.05,0.01,0.08,0.01,0.13,0.02
	c-1.36,3.24-3.27,6.23-5.64,8.83c-2.31,12.5-12.26,13.68-22.89,10.04h-0.01c-1.17,5.07-2.86,10.01-5.04,14.73h-18.02
	c-0.06-0.2-0.12-0.41-0.18-0.61c1.67,0.1,3.34,0.01,4.99-0.3c-1.34-1.64-2.67-3.29-4.01-4.93c-0.03-0.03-0.06-0.06-0.08-0.1
	c-0.68-0.84-1.36-1.67-2.04-2.51l0,0C438.29,468.58,438.58,466.01,439.2,463.52L439.2,463.52z"/>
<path fill="#A0616A" d="M240.72,77.34c2.51,3.8,7.62,4.85,11.42,2.34c0.37-0.24,0.72-0.52,1.04-0.81l37.47,16.9l7.22-9.21
	L253.23,66.8c-3.32-3.11-8.53-2.94-11.64,0.38C238.99,69.96,238.63,74.16,240.72,77.34L240.72,77.34z"/>
<path fill="#972678" d="M401.51,87.88l3.72,21.06c0.69,3.89-1.91,7.6-5.8,8.29c-0.23,0.04-0.45,0.07-0.68,0.09l-63.14,4.97
	l-74.22-33.22l8.86-16.83l64.43,20.4L401.51,87.88z"/>
<path fill="#CCCCCC" d="M26.74,72.79h226.99c14.77,0,26.74,11.97,26.74,26.74v224.1c0,14.77-11.97,26.74-26.74,26.74H26.74
	C11.97,350.38,0,338.41,0,323.64V99.53C0,84.76,11.97,72.79,26.74,72.79z"/>
<path fill="#FFFFFF" d="M26.74,78.29C15.01,78.29,5.5,87.8,5.5,99.53l0,0v224.1c0,11.73,9.51,21.24,21.24,21.24l0,0h144.87
	c57.09,0,103.36-46.28,103.36-103.36l0,0V99.53c0-11.73-9.51-21.24-21.24-21.24l0,0H26.74z"/>
<path fill="#CCCCCC" d="M203.7,146.3H76.29c-2.43,0-4.41-1.97-4.41-4.41s1.97-4.41,4.41-4.41H203.7c2.43,0,4.41,1.97,4.41,4.41
	S206.13,146.3,203.7,146.3L203.7,146.3z"/>
<path fill="#CCCCCC" d="M203.7,240.3H76.29c-2.43,0-4.41-1.97-4.41-4.41s1.97-4.41,4.41-4.41H203.7c2.43,0,4.41,1.97,4.41,4.41
	S206.13,240.3,203.7,240.3L203.7,240.3z"/>
<path fill="#CCCCCC" d="M255.43,193.33H24.55c-2.43,0-4.41-1.97-4.41-4.41c0-2.43,1.97-4.41,4.41-4.41h230.88
	c2.43,0,4.41,1.97,4.41,4.41S257.87,193.33,255.43,193.33z"/>
<polygon fill="#A0616A" points="393.53,180.69 370.53,229.69 459.01,220.73 440.54,173.69 "/>
<polygon fill="#A0616A" points="414.1,462.32 405.71,462.25 402,429.14 414.38,429.24 "/>
<path fill="#2F2E41" d="M387.23,475.66c-0.02,2.07,1.65,3.76,3.72,3.78l16.68,0.14l2.92-5.92l1.07,5.95l6.29,0.06l-1.59-21.22
	l-2.19-0.15l-8.93-0.62l-2.88-0.19l-0.05,6l-13.4,9.09C387.86,473.28,387.24,474.43,387.23,475.66z"/>
<polygon fill="#A0616A" points="321.27,462.36 313.27,459.83 319.45,427.08 331.25,430.82 "/>
<path fill="#2F2E41" d="M291.66,467.21c-0.62,1.97,0.47,4.08,2.44,4.71l15.9,5.03l4.53-4.8l-0.72,6l6,1.9l4.71-20.75l-2.05-0.78
	l-8.36-3.21l-2.7-1.03L309.6,460l-15.48,4.75C292.96,465.12,292.03,466.04,291.66,467.21z"/>
<path fill="#2F2E41" d="M454.98,206.95l-80.45,14.74c0,0-12.9,9.65-9.45,13.11s3.99,2.92,1.72,5.19s-7.17,5.3-7.22,7.28
	s-36.05,90.98-36.05,90.98s4-2,1,1s-3,5.48-3,5.48l-14,94.52l22.74,1.34l22.26-86.17l49.66-80.5c0,0,4.93,71.79,5.13,76.56
	s3.21-1.23,0.21,4.77s-5,2-3,6s-7.2,85.43-7.2,85.43h20.75l44.51-168.79C462.59,277.9,478.43,229.64,454.98,206.95z"/>
<path fill="#972678" d="M431.28,71.93l-32.22-3.35l-8.35,10.84l-9.73,5.18c-8.41,4.48-13.42,13.46-12.81,22.96l11.37,66.12
	c0,0-9.6,21.62-3,27s-5.1,18.71,9,12s75,1,75,1l-13-37l9.71-36.36l1.07-30.49c0.41-11.71-7.12-22.24-18.34-25.63l-1.36-0.41
	L431.28,71.93z"/>
<path fill="#2F2E41" d="M475.64,47.23c0.21,9.08-3.18,17.88-8.06,25.6c-1.45-4.51-4.05-8.61-6.77-12.53
	c1.37,8.46-0.09,17.14-4.15,24.7c-0.14,0.1-0.29,0.2-0.44,0.28c-3.97,2.39-9.01,3.36-13.31,1.63c8.88-9.58,10.01-25.44,2.57-36.19
	c-2.11-3.05-4.84-5.74-6.14-9.21c-2.06-5.53-0.08-11.63,1.17-17.4c1.17-5.37,1.37-11.76-2.23-15.7c0.78-1.12,2.11-1.73,3.47-1.6
	c2.22,0.31,3.84,2.24,4.87,4.23s1.71,4.19,3.14,5.91c2.66,3.21,7.18,3.98,11,5.67C469.99,26.76,475.42,37.12,475.64,47.23z"/>
<path fill="#CCCCCC" d="M237.65,479.66c0,0.66,0.53,1.19,1.18,1.19c0,0,0,0,0.01,0h253.29c0.66,0,1.19-0.53,1.19-1.19
	s-0.53-1.19-1.19-1.19H238.84C238.19,478.47,237.65,479,237.65,479.66C237.65,479.65,237.65,479.66,237.65,479.66z"/>
<circle fill="#972678" cx="477.64" cy="248.75" r="9"/>
<path fill="#2F2E41" d="M397.89,42.04c0.53-1.85-3.11,9.45-1.35,9.65c8,0.92,18.97,5.69,24.54,7.92c0.25-0.03,0.5-0.06,0.75-0.09
	c0.6-0.07,1.18-0.16,1.76-0.27c12.97-2.45,17.96-22.38,17.96-22.56c0-0.9-2.15-25.49-5.54-25.86c-0.89-0.1-1.78-0.15-2.68-0.15h-8.4
	c-1.74-0.37-3.5-0.63-5.27-0.76h-0.01c-16.92-1.29-30.25,9.02-29.01,21.57c0.01,0.01,0.02,0.03,0.03,0.04
	c0.36,0.54,0.68,1.05,0.96,1.54c0.27,0.46,0.5,0.9,0.7,1.31c1.54,3.2-2.42,7.23,0.21,7.99c3.5,1-9.19,33.89,4.64,33.89
	C390.43,78.17,396.43,47.13,397.89,42.04z"/>
<circle fill="#A0616A" cx="412.99" cy="41.44" r="19.89"/>
<path fill="#2F2E41" d="M390.62,32.57c0.33,0.17,0.66,0.33,0.99,0.5c0.35,0.17,0.69,0.33,1.04,0.49c6.66,3.02,12.08,3.36,15.37-0.98
	c0.09-2.28,0.6-4.53,1.51-6.63c-0.16,2.34,0.46,4.67,1.76,6.63h6.62c6.82,4.53,10.33,5,5.59,19.87c-1.32,4.14-6.57,28.25-4.51,31.83
	c0.6-0.07,6.95-26.47,7.53-26.58c12.97-2.45,21.21-23.82,20.15-25.03c0.01-3.44-0.79-6.83-2.31-9.91c-1.93-3.9-4.93-7.17-8.66-9.42
	c-2.22-1.08-4.54-1.95-6.92-2.6c-0.06-0.01-0.11-0.03-0.17-0.04c-0.73-0.2-1.48-0.38-2.22-0.53c-1.54-0.33-3.1-0.56-4.66-0.71
	c-0.11-0.01-0.22-0.01-0.32-0.01c-0.63,0-1.24,0.17-1.78,0.49c-0.01,0-0.01,0.01-0.01,0.01c-0.38,0.22-0.72,0.52-0.99,0.88
	c-0.47,0.6-0.73,1.34-0.72,2.1h-7.38c-0.27,0-0.55,0.01-0.82,0.02c-10.2,0.35-18.46,8.41-19.07,18.6
	C390.63,31.88,390.62,32.22,390.62,32.57z"/>
<circle fill="#2F2E41" cx="434.12" cy="13.11" r="13.11"/>
<path fill="#A0616A" d="M477.74,252.46c2.44-3.85,1.3-8.94-2.55-11.38c-0.37-0.24-0.76-0.44-1.17-0.62l0.06-41.1l-11.36-2.81
	l0.28,48.82c-1.48,4.3,0.82,8.99,5.12,10.46C471.72,257.06,475.7,255.67,477.74,252.46L477.74,252.46z"/>
<path fill="#972678" d="M421.46,101.48l17.68-12.02c3.27-2.22,7.72-1.37,9.94,1.9c0.13,0.19,0.25,0.39,0.36,0.59l30.4,55.56
	l0.12,81.31l-18.98-1.19l-7.79-67.13L421.46,101.48z"/>
<path fill="#FFFFFF" d="M285.65,285.88h-189c-8.56,0-15.5,6.94-15.5,15.5s6.94,15.5,15.5,15.5h189c8.56,0,15.5-6.94,15.5-15.5
	S294.21,285.88,285.65,285.88L285.65,285.88z"/>
<path fill="#972678" d="M285.65,317.88h-189c-9.11,0-16.5-7.39-16.5-16.5s7.39-16.5,16.5-16.5h189c9.11,0,16.5,7.39,16.5,16.5
	S294.76,317.88,285.65,317.88z M96.65,286.88c-8.01,0-14.5,6.49-14.5,14.5s6.49,14.5,14.5,14.5h189c8.01,0,14.5-6.49,14.5-14.5
	s-6.49-14.5-14.5-14.5H96.65z"/>
<path fill="#972678" d="M296.79,353.52h-83.41c-2.43,0-4.41-1.97-4.41-4.41s1.97-4.41,4.41-4.41h83.41c2.43,0,4.41,1.97,4.41,4.41
	S299.22,353.52,296.79,353.52z"/>
</svg>
