<?xml version="1.0" encoding="utf-8"?>
<!-- Generator: Adobe Illustrator 23.1.0, SVG Export Plug-In . SVG Version: 6.00 Build 0)  -->
<svg version="1.1" id="Layer_1" xmlns="http://www.w3.org/2000/svg" xmlns:xlink="http://www.w3.org/1999/xlink" x="0px" y="0px"
	 viewBox="0 0 50 50" style="enable-background:new 0 0 50 50;" xml:space="preserve">
<path d="M13.22,22.84c6.09,0,11.03-4.94,11.03-11.03S19.31,0.79,13.22,0.79S2.2,5.73,2.2,11.82S7.13,22.84,13.22,22.84z M13.22,4.47
	c4.06,0,7.35,3.29,7.35,7.35s-3.29,7.35-7.35,7.35s-7.35-3.29-7.35-7.35S9.16,4.47,13.22,4.47z M36.83,26.95
	c-6.09,0-11.03,4.94-11.03,11.03S30.74,49,36.83,49s11.03-4.94,11.03-11.03S42.92,26.95,36.83,26.95z M36.83,45.32
	c-4.06,0-7.35-3.29-7.35-7.35s3.29-7.35,7.35-7.35s7.35,3.29,7.35,7.35S40.89,45.32,36.83,45.32z M44,7.9L7.1,44.8
	c-0.72,0.72-1.88,0.72-2.6,0h0c-0.72-0.72-0.72-1.88,0-2.6L41.41,5.3c0.72-0.72,1.88-0.72,2.6,0h0C44.72,6.01,44.72,7.18,44,7.9z"/>
</svg>
