<?xml version="1.0" encoding="utf-8"?>
<!-- Generator: Adobe Illustrator 23.1.0, SVG Export Plug-In . SVG Version: 6.00 Build 0)  -->
<svg version="1.1" id="Layer_1" xmlns="http://www.w3.org/2000/svg" xmlns:xlink="http://www.w3.org/1999/xlink" x="0px" y="0px"
	 viewBox="0 0 48 48" enable-background="new 0 0 48 48" xml:space="preserve">
<path d="M45.2,16.78l-2.93-1.88c0.1-0.52,0.1-0.94,0.1-1.36c0-0.42,0-0.84-0.1-1.36l2.61-1.88c0.31-0.21,0.31-0.52,0.21-0.84
	l-2.61-4.49c-0.21-0.31-0.52-0.42-0.84-0.21l-3.03,1.36c-0.73-0.52-1.46-0.94-2.3-1.36l-0.31-3.24C36.11,1.21,35.9,1,35.59,1h-5.12
	c-0.31,0-0.63,0.21-0.63,0.52l-0.31,3.24c-0.84,0.31-1.57,0.73-2.3,1.36L24.2,4.76c-0.31-0.1-0.63,0-0.84,0.21l-2.61,4.49
	c-0.21,0.31-0.1,0.63,0.21,0.84l2.61,1.88c0,0.52,0,0.94,0,1.36c0,0.42,0,0.84,0.1,1.36l-2.61,1.88c-0.31,0.21-0.31,0.52-0.21,0.84
	l2.61,4.49c0.21,0.31,0.52,0.42,0.84,0.21l3.03-1.36c0.73,0.52,1.46,0.94,2.3,1.36l0.31,3.24c0,0.31,0.31,0.52,0.63,0.52h5.12
	c0.31,0,0.63-0.21,0.63-0.52l0.31-3.24c0.84-0.31,1.57-0.73,2.3-1.36l3.03,1.36c0.31,0.1,0.63,0,0.84-0.21l2.61-4.49
	C45.62,17.3,45.52,16.99,45.2,16.78z M33.08,18.77c-2.93,0-5.23-2.3-5.23-5.23c0-2.93,2.3-5.23,5.23-5.23c2.93,0,5.23,2.3,5.23,5.23
	C38.3,16.47,36.01,18.77,33.08,18.77z M29.63,27.96l-2.82-4.81c-0.21-0.31-0.52-0.42-0.84-0.31l-3.24,1.57
	c-0.73-0.63-1.57-1.05-2.51-1.46l-0.31-3.55c0-0.31-0.31-0.63-0.63-0.63h-5.54c-0.31,0-0.63,0.31-0.63,0.63l-0.42,3.66
	c-0.94,0.31-1.67,0.84-2.51,1.46l-3.24-1.46c-0.31-0.1-0.73,0-0.84,0.31l-2.82,4.81c-0.21,0.31-0.1,0.73,0.21,0.94l2.93,2.09
	c-0.1,0.42-0.1,0.94-0.1,1.46s0,0.94,0.1,1.46L3.5,36.22c-0.31,0.21-0.42,0.63-0.21,0.94l2.82,4.81c0.21,0.31,0.52,0.42,0.84,0.31
	l3.24-1.46c0.73,0.63,1.57,1.05,2.51,1.46l0.31,3.55c0,0.31,0.31,0.63,0.63,0.63h5.54c0.31,0,0.63-0.31,0.63-0.63l0.31-3.55
	c0.94-0.31,1.67-0.84,2.51-1.46l3.24,1.46c0.31,0.1,0.73,0,0.84-0.31l2.82-4.81c0.21-0.31,0.1-0.73-0.21-0.94l-2.82-2.3
	c0.1-0.42,0.1-0.94,0.1-1.46s0-0.94-0.1-1.46l2.93-2.09C29.73,28.69,29.84,28.28,29.63,27.96z M16.46,37.84
	c-2.89,0-5.23-2.34-5.23-5.23c0-2.89,2.34-5.23,5.23-5.23s5.23,2.34,5.23,5.23C21.68,35.5,19.35,37.84,16.46,37.84z"/>
</svg>
